<?xml version="1.0" encoding="UTF-8" standalone="no"?>
<svg
   xml:space="preserve"
   id="svg5"
   width="1400"
   height="731.49994"
   version="1.1"
   viewBox="0 0 370.41725 193.54298"
   sodipodi:docname="banner_light.svg"
   inkscape:version="1.2.2 (b0a8486541, 2022-12-01)"
   xmlns:inkscape="http://www.inkscape.org/namespaces/inkscape"
   xmlns:sodipodi="http://sodipodi.sourceforge.net/DTD/sodipodi-0.dtd"
   xmlns:xlink="http://www.w3.org/1999/xlink"
   xmlns="http://www.w3.org/2000/svg"
   xmlns:svg="http://www.w3.org/2000/svg"><sodipodi:namedview
     id="namedview403"
     pagecolor="#ffffff"
     bordercolor="#666666"
     borderopacity="1.0"
     inkscape:showpageshadow="2"
     inkscape:pageopacity="0.0"
     inkscape:pagecheckerboard="0"
     inkscape:deskcolor="#d1d1d1"
     showgrid="false"
     inkscape:zoom="0.72488038"
     inkscape:cx="406.9637"
     inkscape:cy="531.12211"
     inkscape:window-width="3440"
     inkscape:window-height="1400"
     inkscape:window-x="0"
     inkscape:window-y="0"
     inkscape:window-maximized="1"
     inkscape:current-layer="svg5" /><defs
     id="defs2"><clipPath
       id="clipPath8312"
       clipPathUnits="userSpaceOnUse" /><clipPath
       id="clipPath8366"
       clipPathUnits="userSpaceOnUse" /><clipPath
       id="clipPath8372"
       clipPathUnits="userSpaceOnUse" /><clipPath
       id="clipPath8378"
       clipPathUnits="userSpaceOnUse" /><clipPath
       id="clipPath8384"
       clipPathUnits="userSpaceOnUse" /><clipPath
       id="clipPath8390"
       clipPathUnits="userSpaceOnUse" /><clipPath
       id="clipPath8396"
       clipPathUnits="userSpaceOnUse" /><clipPath
       id="clipPath8402"
       clipPathUnits="userSpaceOnUse" /><clipPath
       id="clipPath8408"
       clipPathUnits="userSpaceOnUse" /><clipPath
       id="clipPath8414"
       clipPathUnits="userSpaceOnUse" /><clipPath
       id="clipPath8420"
       clipPathUnits="userSpaceOnUse" /><clipPath
       id="clipPath8426"
       clipPathUnits="userSpaceOnUse" /><clipPath
       id="clipPath8432"
       clipPathUnits="userSpaceOnUse" /><clipPath
       id="clipPath8438"
       clipPathUnits="userSpaceOnUse" /><clipPath
       id="clipPath8444"
       clipPathUnits="userSpaceOnUse" /><clipPath
       id="clipPath8450"
       clipPathUnits="userSpaceOnUse" /><clipPath
       id="clipPath8456"
       clipPathUnits="userSpaceOnUse" /><clipPath
       id="clipPath8462"
       clipPathUnits="userSpaceOnUse" /><clipPath
       id="clipPath8468"
       clipPathUnits="userSpaceOnUse" /><clipPath
       id="clipPath8474"
       clipPathUnits="userSpaceOnUse" /><clipPath
       id="clipPath8480"
       clipPathUnits="userSpaceOnUse" /><clipPath
       id="clipPath8486"
       clipPathUnits="userSpaceOnUse" /><clipPath
       id="clipPath8492"
       clipPathUnits="userSpaceOnUse" /><clipPath
       id="clipPath8498"
       clipPathUnits="userSpaceOnUse" /><clipPath
       id="clipPath8504"
       clipPathUnits="userSpaceOnUse" /><clipPath
       id="clipPath8510"
       clipPathUnits="userSpaceOnUse" /><clipPath
       id="clipPath8516"
       clipPathUnits="userSpaceOnUse" /><clipPath
       id="clipPath8522"
       clipPathUnits="userSpaceOnUse" /><clipPath
       id="clipPath8528"
       clipPathUnits="userSpaceOnUse" /><clipPath
       id="clipPath8534"
       clipPathUnits="userSpaceOnUse" /><clipPath
       id="clipPath8540"
       clipPathUnits="userSpaceOnUse" /><clipPath
       id="clipPath8546"
       clipPathUnits="userSpaceOnUse" /><clipPath
       id="clipPath8552"
       clipPathUnits="userSpaceOnUse" /><clipPath
       id="clipPath8558"
       clipPathUnits="userSpaceOnUse" /><clipPath
       id="clipPath8564"
       clipPathUnits="userSpaceOnUse" /><clipPath
       id="clipPath8570"
       clipPathUnits="userSpaceOnUse" /><clipPath
       id="clipPath8576"
       clipPathUnits="userSpaceOnUse" /><clipPath
       id="clipPath8582"
       clipPathUnits="userSpaceOnUse" /><clipPath
       id="clipPath8588"
       clipPathUnits="userSpaceOnUse" /><clipPath
       id="clipPath8594"
       clipPathUnits="userSpaceOnUse" /><clipPath
       id="clipPath8600"
       clipPathUnits="userSpaceOnUse" /><clipPath
       id="clipPath8606"
       clipPathUnits="userSpaceOnUse" /><clipPath
       id="clipPath8612"
       clipPathUnits="userSpaceOnUse" /><clipPath
       id="clipPath8618"
       clipPathUnits="userSpaceOnUse" /><clipPath
       id="clipPath8624"
       clipPathUnits="userSpaceOnUse" /><clipPath
       id="clipPath8624-7"
       clipPathUnits="userSpaceOnUse" /><clipPath
       id="clipPath8618-2"
       clipPathUnits="userSpaceOnUse" /><clipPath
       id="clipPath8612-9"
       clipPathUnits="userSpaceOnUse" /><clipPath
       id="clipPath8606-6"
       clipPathUnits="userSpaceOnUse" /><clipPath
       id="clipPath8600-9"
       clipPathUnits="userSpaceOnUse" /><clipPath
       id="clipPath8594-9"
       clipPathUnits="userSpaceOnUse" /><clipPath
       id="clipPath8588-8"
       clipPathUnits="userSpaceOnUse" /><clipPath
       id="clipPath8582-0"
       clipPathUnits="userSpaceOnUse" /><clipPath
       id="clipPath8576-1"
       clipPathUnits="userSpaceOnUse" /><clipPath
       id="clipPath8570-3"
       clipPathUnits="userSpaceOnUse" /><clipPath
       id="clipPath8564-6"
       clipPathUnits="userSpaceOnUse" /><clipPath
       id="clipPath8558-5"
       clipPathUnits="userSpaceOnUse" /><clipPath
       id="clipPath8552-6"
       clipPathUnits="userSpaceOnUse" /><clipPath
       id="clipPath8546-9"
       clipPathUnits="userSpaceOnUse" /><clipPath
       id="clipPath8540-4"
       clipPathUnits="userSpaceOnUse" /><clipPath
       id="clipPath8534-5"
       clipPathUnits="userSpaceOnUse" /><clipPath
       id="clipPath8528-4"
       clipPathUnits="userSpaceOnUse" /><clipPath
       id="clipPath8522-0"
       clipPathUnits="userSpaceOnUse" /><clipPath
       id="clipPath8516-6"
       clipPathUnits="userSpaceOnUse" /><clipPath
       id="clipPath8510-4"
       clipPathUnits="userSpaceOnUse" /><clipPath
       id="clipPath8504-4"
       clipPathUnits="userSpaceOnUse" /><clipPath
       id="clipPath8498-0"
       clipPathUnits="userSpaceOnUse" /><clipPath
       id="clipPath8492-9"
       clipPathUnits="userSpaceOnUse" /><clipPath
       id="clipPath8486-6"
       clipPathUnits="userSpaceOnUse" /><clipPath
       id="clipPath8480-5"
       clipPathUnits="userSpaceOnUse" /><clipPath
       id="clipPath8474-8"
       clipPathUnits="userSpaceOnUse" /><clipPath
       id="clipPath8468-7"
       clipPathUnits="userSpaceOnUse" /><clipPath
       id="clipPath8462-2"
       clipPathUnits="userSpaceOnUse" /><clipPath
       id="clipPath8456-1"
       clipPathUnits="userSpaceOnUse" /><clipPath
       id="clipPath8450-1"
       clipPathUnits="userSpaceOnUse" /><clipPath
       id="clipPath8444-4"
       clipPathUnits="userSpaceOnUse" /><clipPath
       id="clipPath8438-9"
       clipPathUnits="userSpaceOnUse" /><clipPath
       id="clipPath8432-7"
       clipPathUnits="userSpaceOnUse" /><clipPath
       id="clipPath8426-5"
       clipPathUnits="userSpaceOnUse" /><clipPath
       id="clipPath8420-7"
       clipPathUnits="userSpaceOnUse" /><clipPath
       id="clipPath8414-3"
       clipPathUnits="userSpaceOnUse" /><clipPath
       id="clipPath8408-6"
       clipPathUnits="userSpaceOnUse" /><clipPath
       id="clipPath8402-4"
       clipPathUnits="userSpaceOnUse" /><clipPath
       id="clipPath8396-2"
       clipPathUnits="userSpaceOnUse" /><clipPath
       id="clipPath8390-9"
       clipPathUnits="userSpaceOnUse" /><clipPath
       id="clipPath8384-8"
       clipPathUnits="userSpaceOnUse" /><clipPath
       id="clipPath8378-9"
       clipPathUnits="userSpaceOnUse" /><clipPath
       id="clipPath8372-8"
       clipPathUnits="userSpaceOnUse" /><clipPath
       id="clipPath8366-1"
       clipPathUnits="userSpaceOnUse" /><clipPath
       id="clipPath8312-9"
       clipPathUnits="userSpaceOnUse" /><clipPath
       id="SVGID_00000171683391743852478260000002390994208354331064_"><use
         xlink:href="#SVGID_00000027573604992125855210000001097089857358505618_-8"
         id="use1616"
         style="overflow:visible" /></clipPath><clipPath
       id="SVGID_00000181778973928023992280000001083650727911778446_"><use
         xlink:href="#SVGID_00000049943284894445118840000014396408023471052980_-2"
         id="use1714"
         style="overflow:visible" /></clipPath><pattern
       xlink:href="#pattern5708"
       id="pattern32279"
       patternTransform="translate(93.326 -104.154) scale(.26085)" /><pattern
       xlink:href="#pattern5706"
       id="pattern5708"
       patternTransform="translate(89.298 -107.347) scale(.26085)" /><pattern
       xlink:href="#pattern4121"
       id="pattern5706"
       patternTransform="translate(-40.62 -59.149) scale(.23547)" /><pattern
       xlink:href="#pattern2684"
       id="pattern4178"
       patternTransform="translate(511.775 -169.169) scale(.26458)" /><pattern
       xlink:href="#pattern2684"
       id="pattern4121"
       patternTransform="translate(96.127 -55.729) scale(.23332)" /><pattern
       xlink:href="#pattern2684"
       id="pattern4042"
       patternTransform="translate(275.425 -124.318) scale(.18404)" /><pattern
       xlink:href="#pattern2684"
       id="pattern4037"
       patternTransform="translate(259.11 -68.354) scale(.20585)" /><pattern
       id="pattern2684"
       width="748.935"
       height="270.374"
       patternTransform="translate(379.341 -287.01)"
       patternUnits="userSpaceOnUse"><g
         id="g2682"
         transform="translate(-497.062 -222.103) scale(3.77953)"><path
           id="use2382"
           d="m131.701 130.114 71.163-71.162"
           style="fill:#000;fill-opacity:0;stroke:#4ea8f1;stroke-width:.529167;stroke-linecap:butt;stroke-linejoin:miter;stroke-dasharray:none;stroke-opacity:1" /><path
           id="use2384"
           d="m133.847 130.114 71.163-71.162"
           style="fill:#000;fill-opacity:0;stroke:#4ea8f1;stroke-width:.529167;stroke-linecap:butt;stroke-linejoin:miter;stroke-dasharray:none;stroke-opacity:1" /><path
           id="use2386"
           d="m135.994 130.114 71.162-71.162"
           style="fill:#000;fill-opacity:0;stroke:#4ea8f1;stroke-width:.529167;stroke-linecap:butt;stroke-linejoin:miter;stroke-dasharray:none;stroke-opacity:1" /><path
           id="use2388"
           d="m138.14 130.114 71.162-71.162"
           style="fill:#000;fill-opacity:0;stroke:#4ea8f1;stroke-width:.529167;stroke-linecap:butt;stroke-linejoin:miter;stroke-dasharray:none;stroke-opacity:1" /><path
           id="use2390"
           d="m140.286 130.114 71.162-71.162"
           style="fill:#000;fill-opacity:0;stroke:#4ea8f1;stroke-width:.529167;stroke-linecap:butt;stroke-linejoin:miter;stroke-dasharray:none;stroke-opacity:1" /><path
           id="use2392"
           d="m142.432 130.114 71.162-71.162"
           style="fill:#000;fill-opacity:0;stroke:#4ea8f1;stroke-width:.529167;stroke-linecap:butt;stroke-linejoin:miter;stroke-dasharray:none;stroke-opacity:1" /><path
           id="use2394"
           d="m144.578 130.114 71.162-71.162"
           style="fill:#000;fill-opacity:0;stroke:#4ea8f1;stroke-width:.529167;stroke-linecap:butt;stroke-linejoin:miter;stroke-dasharray:none;stroke-opacity:1" /><path
           id="use2396"
           d="m146.724 130.114 71.162-71.162"
           style="fill:#000;fill-opacity:0;stroke:#4ea8f1;stroke-width:.529167;stroke-linecap:butt;stroke-linejoin:miter;stroke-dasharray:none;stroke-opacity:1" /><path
           id="use2398"
           d="m148.87 130.114 71.162-71.162"
           style="fill:#000;fill-opacity:0;stroke:#4ea8f1;stroke-width:.529167;stroke-linecap:butt;stroke-linejoin:miter;stroke-dasharray:none;stroke-opacity:1" /><path
           id="use2400"
           d="m151.016 130.114 71.162-71.162"
           style="fill:#000;fill-opacity:0;stroke:#4ea8f1;stroke-width:.529167;stroke-linecap:butt;stroke-linejoin:miter;stroke-dasharray:none;stroke-opacity:1" /><path
           id="use2402"
           d="m153.162 130.114 71.162-71.162"
           style="fill:#000;fill-opacity:0;stroke:#4ea8f1;stroke-width:.529167;stroke-linecap:butt;stroke-linejoin:miter;stroke-dasharray:none;stroke-opacity:1" /><path
           id="use2404"
           d="m155.308 130.114 71.163-71.162"
           style="fill:#000;fill-opacity:0;stroke:#4ea8f1;stroke-width:.529167;stroke-linecap:butt;stroke-linejoin:miter;stroke-dasharray:none;stroke-opacity:1" /><path
           id="use2406"
           d="m157.454 130.114 71.163-71.162"
           style="fill:#000;fill-opacity:0;stroke:#4ea8f1;stroke-width:.529167;stroke-linecap:butt;stroke-linejoin:miter;stroke-dasharray:none;stroke-opacity:1" /><path
           id="use2408"
           d="m159.6 130.114 71.163-71.162"
           style="fill:#000;fill-opacity:0;stroke:#4ea8f1;stroke-width:.529167;stroke-linecap:butt;stroke-linejoin:miter;stroke-dasharray:none;stroke-opacity:1" /><path
           id="use2410"
           d="m161.747 130.114 71.162-71.162"
           style="fill:#000;fill-opacity:0;stroke:#4ea8f1;stroke-width:.529167;stroke-linecap:butt;stroke-linejoin:miter;stroke-dasharray:none;stroke-opacity:1" /><path
           id="use2412"
           d="m163.893 130.114 71.162-71.162"
           style="fill:#000;fill-opacity:0;stroke:#4ea8f1;stroke-width:.529167;stroke-linecap:butt;stroke-linejoin:miter;stroke-dasharray:none;stroke-opacity:1" /><path
           id="use2414"
           d="M166.039 130.114 237.2 58.952"
           style="fill:#000;fill-opacity:0;stroke:#4ea8f1;stroke-width:.529167;stroke-linecap:butt;stroke-linejoin:miter;stroke-dasharray:none;stroke-opacity:1" /><path
           id="use2416"
           d="m168.185 130.114 71.162-71.162"
           style="fill:#000;fill-opacity:0;stroke:#4ea8f1;stroke-width:.529167;stroke-linecap:butt;stroke-linejoin:miter;stroke-dasharray:none;stroke-opacity:1" /><path
           id="use2418"
           d="m170.331 130.114 71.162-71.162"
           style="fill:#000;fill-opacity:0;stroke:#4ea8f1;stroke-width:.529167;stroke-linecap:butt;stroke-linejoin:miter;stroke-dasharray:none;stroke-opacity:1" /><path
           id="use2420"
           d="m172.477 130.114 71.162-71.162"
           style="fill:#000;fill-opacity:0;stroke:#4ea8f1;stroke-width:.529167;stroke-linecap:butt;stroke-linejoin:miter;stroke-dasharray:none;stroke-opacity:1" /><path
           id="use2422"
           d="m174.623 130.114 71.162-71.162"
           style="fill:#000;fill-opacity:0;stroke:#4ea8f1;stroke-width:.529167;stroke-linecap:butt;stroke-linejoin:miter;stroke-dasharray:none;stroke-opacity:1" /><path
           id="use2424"
           d="m176.77 130.114 71.161-71.162"
           style="fill:#000;fill-opacity:0;stroke:#4ea8f1;stroke-width:.529167;stroke-linecap:butt;stroke-linejoin:miter;stroke-dasharray:none;stroke-opacity:1" /><path
           id="use2426"
           d="m178.915 130.114 71.163-71.162"
           style="fill:#000;fill-opacity:0;stroke:#4ea8f1;stroke-width:.529167;stroke-linecap:butt;stroke-linejoin:miter;stroke-dasharray:none;stroke-opacity:1" /><path
           id="use2428"
           d="m181.061 130.114 71.163-71.162"
           style="fill:#000;fill-opacity:0;stroke:#4ea8f1;stroke-width:.529167;stroke-linecap:butt;stroke-linejoin:miter;stroke-dasharray:none;stroke-opacity:1" /><path
           id="use2430"
           d="m183.208 130.114 71.162-71.162"
           style="fill:#000;fill-opacity:0;stroke:#4ea8f1;stroke-width:.529167;stroke-linecap:butt;stroke-linejoin:miter;stroke-dasharray:none;stroke-opacity:1" /><path
           id="use2432"
           d="m185.354 130.114 71.162-71.162"
           style="fill:#000;fill-opacity:0;stroke:#4ea8f1;stroke-width:.529167;stroke-linecap:butt;stroke-linejoin:miter;stroke-dasharray:none;stroke-opacity:1" /><path
           id="use2434"
           d="m187.5 130.114 71.162-71.162"
           style="fill:#000;fill-opacity:0;stroke:#4ea8f1;stroke-width:.529167;stroke-linecap:butt;stroke-linejoin:miter;stroke-dasharray:none;stroke-opacity:1" /><path
           id="use2436"
           d="m189.646 130.114 71.162-71.162"
           style="fill:#000;fill-opacity:0;stroke:#4ea8f1;stroke-width:.529167;stroke-linecap:butt;stroke-linejoin:miter;stroke-dasharray:none;stroke-opacity:1" /><path
           id="use2438"
           d="m191.792 130.114 71.162-71.162"
           style="fill:#000;fill-opacity:0;stroke:#4ea8f1;stroke-width:.529167;stroke-linecap:butt;stroke-linejoin:miter;stroke-dasharray:none;stroke-opacity:1" /><path
           id="use2440"
           d="M193.938 130.114 265.1 58.952"
           style="fill:#000;fill-opacity:0;stroke:#4ea8f1;stroke-width:.529167;stroke-linecap:butt;stroke-linejoin:miter;stroke-dasharray:none;stroke-opacity:1" /><path
           id="use2442"
           d="m196.084 130.114 71.162-71.162"
           style="fill:#000;fill-opacity:0;stroke:#4ea8f1;stroke-width:.529167;stroke-linecap:butt;stroke-linejoin:miter;stroke-dasharray:none;stroke-opacity:1" /><path
           id="use2444"
           d="m198.23 130.114 71.162-71.162"
           style="fill:#000;fill-opacity:0;stroke:#4ea8f1;stroke-width:.529167;stroke-linecap:butt;stroke-linejoin:miter;stroke-dasharray:none;stroke-opacity:1" /><path
           id="use2446"
           d="m200.376 130.114 71.162-71.162"
           style="fill:#000;fill-opacity:0;stroke:#4ea8f1;stroke-width:.529167;stroke-linecap:butt;stroke-linejoin:miter;stroke-dasharray:none;stroke-opacity:1" /><path
           id="use2448"
           d="m202.522 130.114 71.163-71.162"
           style="fill:#000;fill-opacity:0;stroke:#4ea8f1;stroke-width:.529167;stroke-linecap:butt;stroke-linejoin:miter;stroke-dasharray:none;stroke-opacity:1" /><path
           id="use2450"
           d="m204.668 130.114 71.163-71.162"
           style="fill:#000;fill-opacity:0;stroke:#4ea8f1;stroke-width:.529167;stroke-linecap:butt;stroke-linejoin:miter;stroke-dasharray:none;stroke-opacity:1" /><path
           id="use2452"
           d="m206.815 130.114 71.162-71.162"
           style="fill:#000;fill-opacity:0;stroke:#4ea8f1;stroke-width:.529167;stroke-linecap:butt;stroke-linejoin:miter;stroke-dasharray:none;stroke-opacity:1" /><path
           id="use2454"
           d="m208.96 130.114 71.163-71.162"
           style="fill:#000;fill-opacity:0;stroke:#4ea8f1;stroke-width:.529167;stroke-linecap:butt;stroke-linejoin:miter;stroke-dasharray:none;stroke-opacity:1" /><path
           id="use2456"
           d="m211.107 130.114 71.162-71.162"
           style="fill:#000;fill-opacity:0;stroke:#4ea8f1;stroke-width:.529167;stroke-linecap:butt;stroke-linejoin:miter;stroke-dasharray:none;stroke-opacity:1" /><path
           id="use2458"
           d="m213.253 130.114 71.162-71.162"
           style="fill:#000;fill-opacity:0;stroke:#4ea8f1;stroke-width:.529167;stroke-linecap:butt;stroke-linejoin:miter;stroke-dasharray:none;stroke-opacity:1" /><path
           id="use2460"
           d="m215.399 130.114 71.162-71.162"
           style="fill:#000;fill-opacity:0;stroke:#4ea8f1;stroke-width:.529167;stroke-linecap:butt;stroke-linejoin:miter;stroke-dasharray:none;stroke-opacity:1" /><path
           id="use2462"
           d="m217.545 130.114 71.162-71.162"
           style="fill:#000;fill-opacity:0;stroke:#4ea8f1;stroke-width:.529167;stroke-linecap:butt;stroke-linejoin:miter;stroke-dasharray:none;stroke-opacity:1" /><path
           id="use2464"
           d="m219.691 130.114 71.162-71.162"
           style="fill:#000;fill-opacity:0;stroke:#4ea8f1;stroke-width:.529167;stroke-linecap:butt;stroke-linejoin:miter;stroke-dasharray:none;stroke-opacity:1" /><path
           id="use2466"
           d="M221.837 130.114 293 58.952"
           style="fill:#000;fill-opacity:0;stroke:#4ea8f1;stroke-width:.529167;stroke-linecap:butt;stroke-linejoin:miter;stroke-dasharray:none;stroke-opacity:1" /><path
           id="use2468"
           d="m223.983 130.114 71.163-71.162"
           style="fill:#000;fill-opacity:0;stroke:#4ea8f1;stroke-width:.529167;stroke-linecap:butt;stroke-linejoin:miter;stroke-dasharray:none;stroke-opacity:1" /><path
           id="use2470"
           d="m226.13 130.114 71.162-71.162"
           style="fill:#000;fill-opacity:0;stroke:#4ea8f1;stroke-width:.529167;stroke-linecap:butt;stroke-linejoin:miter;stroke-dasharray:none;stroke-opacity:1" /><path
           id="use2472"
           d="m228.275 130.114 71.163-71.162"
           style="fill:#000;fill-opacity:0;stroke:#4ea8f1;stroke-width:.529167;stroke-linecap:butt;stroke-linejoin:miter;stroke-dasharray:none;stroke-opacity:1" /><path
           id="use2474"
           d="m230.422 130.114 71.162-71.162"
           style="fill:#000;fill-opacity:0;stroke:#4ea8f1;stroke-width:.529167;stroke-linecap:butt;stroke-linejoin:miter;stroke-dasharray:none;stroke-opacity:1" /><path
           id="use2476"
           d="m232.568 130.114 71.162-71.162"
           style="fill:#000;fill-opacity:0;stroke:#4ea8f1;stroke-width:.529167;stroke-linecap:butt;stroke-linejoin:miter;stroke-dasharray:none;stroke-opacity:1" /><path
           id="use2478"
           d="m234.714 130.114 71.162-71.162"
           style="fill:#000;fill-opacity:0;stroke:#4ea8f1;stroke-width:.529167;stroke-linecap:butt;stroke-linejoin:miter;stroke-dasharray:none;stroke-opacity:1" /><path
           id="use2480"
           d="m236.86 130.114 71.162-71.162"
           style="fill:#000;fill-opacity:0;stroke:#4ea8f1;stroke-width:.529167;stroke-linecap:butt;stroke-linejoin:miter;stroke-dasharray:none;stroke-opacity:1" /><path
           id="use2482"
           d="m239.006 130.114 71.162-71.162"
           style="fill:#000;fill-opacity:0;stroke:#4ea8f1;stroke-width:.529167;stroke-linecap:butt;stroke-linejoin:miter;stroke-dasharray:none;stroke-opacity:1" /><path
           id="use2484"
           d="m241.152 130.114 71.162-71.162"
           style="fill:#000;fill-opacity:0;stroke:#4ea8f1;stroke-width:.529167;stroke-linecap:butt;stroke-linejoin:miter;stroke-dasharray:none;stroke-opacity:1" /><path
           id="use2486"
           d="m243.298 130.114 71.162-71.162"
           style="fill:#000;fill-opacity:0;stroke:#4ea8f1;stroke-width:.529167;stroke-linecap:butt;stroke-linejoin:miter;stroke-dasharray:none;stroke-opacity:1" /><path
           id="use2488"
           d="m245.444 130.114 71.162-71.162"
           style="fill:#000;fill-opacity:0;stroke:#4ea8f1;stroke-width:.529167;stroke-linecap:butt;stroke-linejoin:miter;stroke-dasharray:none;stroke-opacity:1" /><path
           id="use2490"
           d="m247.59 130.114 71.163-71.162"
           style="fill:#000;fill-opacity:0;stroke:#4ea8f1;stroke-width:.529167;stroke-linecap:butt;stroke-linejoin:miter;stroke-dasharray:none;stroke-opacity:1" /><path
           id="use2492"
           d="M249.736 130.114 320.9 58.952"
           style="fill:#000;fill-opacity:0;stroke:#4ea8f1;stroke-width:.529167;stroke-linecap:butt;stroke-linejoin:miter;stroke-dasharray:none;stroke-opacity:1" /><path
           id="use2494"
           d="m251.882 130.114 71.163-71.162"
           style="fill:#000;fill-opacity:0;stroke:#4ea8f1;stroke-width:.529167;stroke-linecap:butt;stroke-linejoin:miter;stroke-dasharray:none;stroke-opacity:1" /><path
           id="use2496"
           d="m254.029 130.114 71.162-71.162"
           style="fill:#000;fill-opacity:0;stroke:#4ea8f1;stroke-width:.529167;stroke-linecap:butt;stroke-linejoin:miter;stroke-dasharray:none;stroke-opacity:1" /><path
           id="use2498"
           d="m256.175 130.114 71.162-71.162"
           style="fill:#000;fill-opacity:0;stroke:#4ea8f1;stroke-width:.529167;stroke-linecap:butt;stroke-linejoin:miter;stroke-dasharray:none;stroke-opacity:1" /><path
           id="use2500"
           d="m258.32 130.114 71.163-71.162"
           style="fill:#000;fill-opacity:0;stroke:#4ea8f1;stroke-width:.529167;stroke-linecap:butt;stroke-linejoin:miter;stroke-dasharray:none;stroke-opacity:1" /></g></pattern><path
       id="SVGID_00000027573604992125855210000001097089857358505618_-8"
       d="m 40.8,136.5 h 198.8 c -2.4,-14.3 -14.7,-24.8 -29.2,-24.8 H 70 c -14.5,0.1 -26.8,10.6 -29.2,24.8 z" /><path
       id="SVGID_00000049943284894445118840000014396408023471052980_-2"
       d="m 40.4,237.3 v 1.6 c 0,16.4 13.3,29.6 29.6,29.6 h 140.4 c 16.4,0 29.6,-13.3 29.6,-29.6 v -1.6 z m 80.9,14.7 c 0,-2.4 2,-4.4 4.4,-4.4 h 29 c 2.4,0 4.4,2 4.4,4.4 0,2.4 -2,4.4 -4.4,4.4 h -29 c -2.4,0.1 -4.4,-1.9 -4.4,-4.4 z" /><path
       id="path3028"
       d="m 40.4,237.3 v 1.6 c 0,16.4 13.3,29.6 29.6,29.6 h 140.4 c 16.4,0 29.6,-13.3 29.6,-29.6 v -1.6 z m 80.9,14.7 c 0,-2.4 2,-4.4 4.4,-4.4 h 29 c 2.4,0 4.4,2 4.4,4.4 0,2.4 -2,4.4 -4.4,4.4 h -29 c -2.4,0.1 -4.4,-1.9 -4.4,-4.4 z" /><path
       id="path3030"
       d="m 40.8,136.5 h 198.8 c -2.4,-14.3 -14.7,-24.8 -29.2,-24.8 H 70 c -14.5,0.1 -26.8,10.6 -29.2,24.8 z" /><path
       id="SVGID_00000179625833503168757930000017374847827999470230_"
       d="m 701.4,128.2 c -2,-4.9 -10,-15.7 -40.9,-15.7 -30.9,0 -38.9,10.8 -40.9,15.7 -0.5,1.1 -0.7,2.3 -0.7,3.5 v 26.9 h 46 v 8.3 h -71.7 c 0,0 -27.6,-2 -27.6,45.2 0,47.2 27.6,45.2 27.6,45.2 h 17.4 v -22.5 c 0,-17.5 14.2,-31.8 31.8,-31.8 h 39.2 c 11.4,0 20.6,-9.2 20.6,-20.7 v -50.8 c -0.1,-1 -0.3,-2.2 -0.8,-3.3 z m -63.5,19.3 c -4.6,0 -8.3,-3.7 -8.3,-8.3 0,-4.6 3.7,-8.3 8.3,-8.3 4.6,0 8.3,3.7 8.3,8.3 0,4.6 -3.7,8.3 -8.3,8.3 z" /><path
       id="path19127"
       d="m 40.8,136.5 h 198.8 c -2.4,-14.3 -14.7,-24.8 -29.2,-24.8 H 70 c -14.5,0.1 -26.8,10.6 -29.2,24.8 z" /><path
       id="path19178"
       d="m 40.4,237.3 v 1.6 c 0,16.4 13.3,29.6 29.6,29.6 h 140.4 c 16.4,0 29.6,-13.3 29.6,-29.6 v -1.6 z m 80.9,14.7 c 0,-2.4 2,-4.4 4.4,-4.4 h 29 c 2.4,0 4.4,2 4.4,4.4 0,2.4 -2,4.4 -4.4,4.4 h -29 c -2.4,0.1 -4.4,-1.9 -4.4,-4.4 z" /><defs
       id="defs1712"><path
         id="SVGID_00000049943284894445118840000014396408023471052980_"
         d="m 40.4,237.3 v 1.6 c 0,16.4 13.3,29.6 29.6,29.6 h 140.4 c 16.4,0 29.6,-13.3 29.6,-29.6 v -1.6 z m 80.9,14.7 c 0,-2.4 2,-4.4 4.4,-4.4 h 29 c 2.4,0 4.4,2 4.4,4.4 0,2.4 -2,4.4 -4.4,4.4 h -29 c -2.4,0.1 -4.4,-1.9 -4.4,-4.4 z" /></defs><defs
       id="defs1614"><path
         id="SVGID_00000027573604992125855210000001097089857358505618_"
         d="m 40.8,136.5 h 198.8 c -2.4,-14.3 -14.7,-24.8 -29.2,-24.8 H 70 c -14.5,0.1 -26.8,10.6 -29.2,24.8 z" /></defs><linearGradient
       id="linearGradient2751"><stop
         id="stop2749"
         offset="0"
         style="stop-color:#4ea8f1;stop-opacity:1" /></linearGradient></defs><style
     id="style1314"
     type="text/css">.st0{fill:#4ea8f1}</style><g
     id="g555"
     transform="scale(1.7499999)"><path
       id="rect8569"
       d="M 0,0 H 211.667 V 110.596 H 0 Z"
       style="fill:#ffffff;fill-opacity:1;stroke:none;stroke-width:0.793751;stroke-linejoin:miter;stroke-miterlimit:2;stroke-dasharray:none;stroke-dashoffset:0;stroke-opacity:1;paint-order:stroke fill markers" /><g
       id="g47570"
       transform="translate(-1.853)"><g
         id="g6375"
         transform="translate(-2.851,2.415)"><path
           id="path1819"
           d="m 20.141,66.51 a 6.442,6.442 0 0 1 -4.245,-1.79 c -2.243,-2.082 -3.391,-5.687 -3.391,-10.707 0,-5.02 1.148,-8.624 3.39,-10.707 a 6.352,6.352 0 0 1 4.433,-1.789 H 39.02 V 40.155 H 27.164 a 0.422,0.422 0 0 1 -0.427,-0.427 v -7.182 c 0,-0.374 0.08,-0.748 0.214,-1.095 0.56,-1.335 2.75,-4.46 11.32,-4.46 8.546,0 10.762,3.125 11.323,4.46 0.133,0.347 0.213,0.72 0.213,1.095 v 13.563 c 0,3.285 -2.67,5.928 -5.954,5.955 H 33.385 a 8.056,8.056 0 0 0 -8.063,8.064 v 6.008 a 0.429,0.429 0 0 1 -0.134,0.293 c -0.08,0.081 -0.187,0.107 -0.293,0.135 h -4.62 c 0,-0.054 -0.054,-0.054 -0.134,-0.054 z m 0.054,-24.165 a 5.772,5.772 0 0 0 -3.738,1.574 c -2.057,1.924 -3.098,5.315 -3.098,10.068 0,4.78 1.041,8.17 3.124,10.092 a 5.59,5.59 0 0 0 3.792,1.576 h 4.245 v -5.553 c 0,-4.914 3.979,-8.892 8.919,-8.918 h 10.467 c 2.804,0 5.073,-2.271 5.1,-5.101 V 32.519 c 0,-0.267 -0.053,-0.534 -0.16,-0.775 -0.481,-1.174 -2.483,-3.925 -10.52,-3.925 -8.038,0 -10.04,2.75 -10.52,3.925 a 1.915,1.915 0 0 0 -0.162,0.774 v 6.756 H 39.5 c 0.24,0 0.428,0.187 0.428,0.427 v 2.217 A 0.422,0.422 0 0 1 39.5,42.345 H 20.194 Z m 12.043,-5.18 a 2.632,2.632 0 0 1 -2.644,-2.644 2.632,2.632 0 0 1 2.644,-2.643 2.632,2.632 0 0 1 2.643,2.644 2.632,2.632 0 0 1 -2.644,2.643 z m 0,-4.406 a 1.79,1.79 0 1 0 1.788,1.789 c 0,-0.988 -0.8,-1.79 -1.788,-1.79 z"
           class="st0"
           style="stroke-width:0.267016" /><path
           id="path1821"
           d="m 39.206,79.353 c -8.544,0 -10.76,-3.123 -11.321,-4.458 A 3.072,3.072 0 0 1 27.671,73.8 V 60.235 c 0,-3.284 2.67,-5.928 5.954,-5.954 h 10.468 a 8.056,8.056 0 0 0 8.063,-8.064 V 40.21 c 0,-0.107 0.054,-0.213 0.134,-0.293 0.081,-0.08 0.187,-0.108 0.293,-0.134 h 4.62 a 6.29,6.29 0 0 1 4.406,1.789 C 63.852,43.653 65,47.258 65,52.278 c 0,5.02 -1.148,8.624 -3.39,10.708 a 6.352,6.352 0 0 1 -4.433,1.788 H 38.486 v 1.363 H 50.34 c 0.24,0 0.428,0.185 0.428,0.427 v 7.182 c 0,0.373 -0.081,0.747 -0.214,1.095 -0.588,1.388 -2.804,4.512 -11.349,4.512 z m -5.58,-24.191 c -2.804,0 -5.074,2.27 -5.1,5.1 v 13.564 c 0,0.267 0.053,0.535 0.16,0.775 0.48,1.175 2.483,3.925 10.52,3.925 8.037,0 10.04,-2.75 10.521,-3.926 0.107,-0.24 0.16,-0.507 0.16,-0.774 V 67.044 H 38.032 A 0.422,0.422 0 0 1 37.606,66.617 V 64.4 a 0.42,0.42 0 0 1 0.426,-0.427 h 19.145 c 1.443,0 2.804,-0.587 3.845,-1.574 2.057,-1.924 3.098,-5.315 3.098,-10.068 0,-4.78 -1.041,-8.17 -3.124,-10.093 a 5.59,5.59 0 0 0 -3.792,-1.575 h -4.218 v 5.58 c 0,4.913 -4.006,8.892 -8.919,8.919 z M 45.24,74.413 a 2.632,2.632 0 0 1 -2.644,-2.643 2.632,2.632 0 0 1 2.644,-2.644 2.632,2.632 0 0 1 2.644,2.644 2.632,2.632 0 0 1 -2.644,2.644 z m 0,-4.432 a 1.79,1.79 0 1 0 1.79,1.79 c 0,-0.989 -0.802,-1.763 -1.79,-1.79 z"
           class="st0"
           style="stroke-width:0.267016" /><path
           id="path4119"
           d="m 37.756,28.499 c -1.088,0.023 -2.182,0.01 -3.26,0.163 -1.637,0.275 -3.287,0.733 -4.68,1.668 -0.633,0.442 -1.24,1.016 -1.48,1.77 -0.044,0.239 -0.05,0.492 -0.06,0.702 -0.034,1.97 -0.01,3.939 -0.018,5.909 3.42,0.009 6.838,-0.023 10.256,0.031 0.493,0.03 1.003,-0.009 1.482,0.126 0.396,0.142 0.432,0.616 0.468,0.975 0.048,0.79 0.068,1.592 -0.06,2.375 -0.042,0.282 -0.241,0.55 -0.54,0.581 -0.802,0.097 -1.613,0.073 -2.419,0.096 -5.57,0.06 -11.141,-0.015 -16.712,0.08 -0.638,0.031 -1.299,-0.023 -1.906,0.214 -1.437,0.463 -2.55,1.61 -3.263,2.91 -0.894,1.633 -1.321,3.485 -1.492,5.328 -0.03,0.387 -0.053,0.792 -0.064,1.151 -0.053,1.845 -0.004,3.699 0.267,5.527 0.32,1.826 0.944,3.668 2.182,5.084 a 5.58,5.58 0 0 0 2.725,1.716 c 0.482,0.186 1.005,0.126 1.51,0.152 1.077,0.021 2.154,0.022 3.232,0.03 0.037,-1.964 0.027,-3.93 0.113,-5.892 0.04,-0.89 0.19,-1.787 0.58,-2.596 0.455,-1.056 1.046,-2.06 1.835,-2.904 a 9.927,9.927 0 0 1 4.802,-2.856 c 0.934,-0.16 1.887,-0.135 2.832,-0.166 3.235,-0.063 6.472,-0.056 9.706,-0.131 0.156,-0.006 0.343,-0.011 0.498,-0.02 0.458,-0.014 0.925,-0.067 1.336,-0.288 0.999,-0.432 1.849,-1.21 2.31,-2.201 0.372,-0.639 0.38,-1.396 0.42,-2.112 l 0.019,-0.537 c 0.051,-3.105 0.023,-6.21 0.032,-9.315 v -3.84 c -0.24,-0.527 -0.535,-1.043 -0.975,-1.43 -1.058,-0.962 -2.434,-1.478 -3.797,-1.834 -0.957,-0.246 -1.937,-0.408 -2.926,-0.424 a 63.199,63.199 0 0 0 -2.953,-0.042 z m -5.549,2.816 a 3.139,3.139 0 0 1 2.777,1.558 3.246,3.246 0 0 1 -0.003,3.318 c -0.555,1.015 -1.736,1.581 -2.87,1.554 -1.272,-0.023 -2.468,-0.905 -2.873,-2.111 -0.454,-1.257 -0.073,-2.792 0.991,-3.623 a 3.22,3.22 0 0 1 1.978,-0.696 z"
           style="fill:url(#pattern5706);fill-opacity:1;stroke:#ffffff;stroke-width:0.112258;stroke-miterlimit:2;stroke-dasharray:none;stroke-dashoffset:9.92504;stroke-opacity:1;paint-order:fill markers stroke" /></g><path
         id="path18515"
         d="m 107.703,79.941 c -0.65,-0.038 -1.105,-0.092 -1.53,-0.18 a 5.146,5.146 0 0 0 -0.261,-0.047 2.71,2.71 0 0 1 -0.23,-0.046 60.953,60.953 0 0 0 -0.367,-0.092 11.797,11.797 0 0 1 -1.24,-0.382 4.808,4.808 0 0 0 -0.2,-0.078 c -0.47,-0.17 -1.28,-0.569 -1.82,-0.896 a 24.3,24.3 0 0 1 -0.941,-0.623 22.373,22.373 0 0 0 -0.259,-0.194 3.38,3.38 0 0 1 -0.211,-0.169 8.451,8.451 0 0 0 -0.275,-0.23 14.499,14.499 0 0 1 -0.716,-0.668 c -0.489,-0.48 -0.512,-0.499 -0.615,-0.486 -0.097,0.013 -0.596,0.093 -1.102,0.177 -0.296,0.05 -2.064,0.072 -2.45,0.031 l -0.474,-0.05 a 15.563,15.563 0 0 1 -1.27,-0.227 4.658,4.658 0 0 0 -0.307,-0.078 11.628,11.628 0 0 1 -1.77,-0.6 2.007,2.007 0 0 0 -0.212,-0.089 c -0.03,0 -0.91,-0.44 -0.927,-0.464 a 1.085,1.085 0 0 0 -0.168,-0.101 4.429,4.429 0 0 1 -0.29,-0.17 3.26,3.26 0 0 0 -0.184,-0.114 7.534,7.534 0 0 1 -0.643,-0.436 3.255,3.255 0 0 0 -0.215,-0.16 3.46,3.46 0 0 1 -0.26,-0.205 L 88.339,73 a 12.532,12.532 0 0 1 -1.387,-1.432 6.394,6.394 0 0 1 -0.19,-0.245 c -0.076,-0.1 -0.172,-0.225 -0.215,-0.277 a 2.52,2.52 0 0 1 -0.123,-0.165 3.017,3.017 0 0 0 -0.1,-0.14 0.307,0.307 0 0 1 -0.053,-0.09 c 0,-0.01 -0.015,-0.035 -0.032,-0.056 a 5.254,5.254 0 0 1 -0.356,-0.542 0.742,0.742 0 0 0 -0.07,-0.122 1.993,1.993 0 0 1 -0.122,-0.215 c -0.147,-0.28 -0.168,-0.319 -0.186,-0.336 a 1.859,1.859 0 0 1 -0.097,-0.184 12.317,12.317 0 0 1 -0.467,-1.072 c -0.08,-0.21 -0.156,-0.403 -0.17,-0.43 a 0.815,0.815 0 0 1 -0.047,-0.151 0.745,0.745 0 0 0 -0.048,-0.152 4.19,4.19 0 0 1 -0.119,-0.4 l -0.122,-0.459 a 7.953,7.953 0 0 1 -0.079,-0.352 72.024,72.024 0 0 0 -0.08,-0.383 c -0.06,-0.29 -0.108,-0.776 -0.173,-1.796 -0.021,-0.336 -0.007,-0.73 0.055,-1.464 0.048,-0.571 0.083,-0.817 0.184,-1.286 l 0.079,-0.368 c 0.028,-0.134 0.105,-0.425 0.17,-0.645 0.065,-0.22 0.118,-0.42 0.118,-0.444 a 0.502,0.502 0 0 0 -0.115,-0.172 c -0.063,-0.07 -0.17,-0.2 -0.237,-0.286 a 4.9,4.9 0 0 0 -0.2,-0.244 2.505,2.505 0 0 1 -0.244,-0.322 10.764,10.764 0 0 0 -0.39,-0.551 c -0.021,-0.023 -0.039,-0.049 -0.039,-0.058 0,-0.019 -0.143,-0.262 -0.277,-0.471 C 83.06,57.462 82.64,56.613 82.476,56.214 L 82.291,55.77 C 82.26,55.7 82.008,54.91 81.958,54.73 A 12.023,12.023 0 0 1 81.6,52.892 l -0.05,-0.444 c -0.02,-0.177 -0.037,-0.638 -0.037,-1.026 0,-0.685 0.022,-0.976 0.134,-1.806 0.065,-0.484 0.173,-0.973 0.355,-1.608 0.14,-0.486 0.168,-0.572 0.341,-1.025 a 13.12,13.12 0 0 1 0.996,-2.036 c 0.033,-0.06 0.1,-0.162 0.149,-0.228 a 0.513,0.513 0 0 0 0.088,-0.159 c 0,-0.02 0.01,-0.041 0.023,-0.047 0.013,-0.006 0.084,-0.1 0.159,-0.21 0.075,-0.109 0.171,-0.242 0.214,-0.295 0.043,-0.054 0.123,-0.157 0.177,-0.23 a 5.85,5.85 0 0 1 0.176,-0.224 c 0.042,-0.051 0.15,-0.18 0.238,-0.289 0.213,-0.26 1.06,-1.106 1.322,-1.319 0.113,-0.092 0.236,-0.196 0.273,-0.23 0.037,-0.033 0.133,-0.109 0.213,-0.168 0.08,-0.059 0.198,-0.147 0.26,-0.195 0.224,-0.171 0.894,-0.602 1.155,-0.742 0.084,-0.045 0.16,-0.09 0.169,-0.1 0.017,-0.022 0.783,-0.402 0.81,-0.402 0.01,0 0.075,-0.026 0.147,-0.059 0.284,-0.128 0.445,-0.194 0.65,-0.267 0.118,-0.041 0.242,-0.088 0.276,-0.103 0.14,-0.063 0.995,-0.304 1.359,-0.384 a 1.73,1.73 0 0 0 0.202,-0.051 7.41,7.41 0 0 0 0.091,-0.254 c 0.119,-0.34 0.25,-0.67 0.355,-0.895 0.05,-0.105 0.09,-0.2 0.09,-0.212 0,-0.024 0.252,-0.538 0.275,-0.561 0.017,-0.017 0.206,-0.369 0.26,-0.482 0.017,-0.038 0.042,-0.069 0.054,-0.07 0.013,0 0.023,-0.014 0.023,-0.031 0,-0.018 0.049,-0.108 0.108,-0.2 0.058,-0.092 0.107,-0.174 0.107,-0.18 0,-0.008 0.065,-0.106 0.145,-0.218 0.168,-0.235 0.304,-0.428 0.389,-0.553 0.033,-0.049 0.143,-0.186 0.245,-0.306 l 0.4,-0.472 c 0.362,-0.427 0.912,-0.963 1.352,-1.315 0.334,-0.269 0.624,-0.49 0.642,-0.49 0.01,0 0.041,-0.025 0.069,-0.056 a 0.945,0.945 0 0 1 0.172,-0.128 c 0.067,-0.04 0.129,-0.082 0.137,-0.092 0.016,-0.02 0.673,-0.425 0.858,-0.53 0.155,-0.087 0.94,-0.48 0.96,-0.48 0.01,0 0.09,-0.033 0.18,-0.074 0.088,-0.04 0.216,-0.097 0.283,-0.125 a 24.669,24.669 0 0 1 1.562,-0.51 2.42,2.42 0 0 1 0.23,-0.057 l 0.382,-0.076 a 12.248,12.248 0 0 1 3.093,-0.232 c 0.552,0.034 1.042,0.078 1.194,0.107 0.05,0.01 0.174,0.032 0.275,0.049 a 12.65,12.65 0 0 1 1.588,0.366 l 0.293,0.095 c 0.64,0.205 1.588,0.628 2.138,0.953 0.598,0.354 0.702,0.42 0.74,0.465 0.022,0.027 0.056,0.05 0.075,0.051 0.019,10e-4 0.117,0.064 0.218,0.139 0.101,0.075 0.229,0.165 0.283,0.2 0.055,0.035 0.1,0.075 0.1,0.089 0,0.014 0.024,0.033 0.054,0.042 0.029,0.01 0.09,0.049 0.134,0.087 l 0.32,0.268 c 0.131,0.11 0.467,0.424 0.746,0.698 0.487,0.481 0.51,0.5 0.614,0.486 0.097,-0.012 0.592,-0.091 1.102,-0.177 0.296,-0.049 2.064,-0.071 2.45,-0.03 l 0.474,0.05 c 0.243,0.025 1.158,0.189 1.27,0.227 0.043,0.014 0.18,0.05 0.307,0.078 a 11.63,11.63 0 0 1 1.77,0.6 c 0.106,0.049 0.202,0.089 0.213,0.089 0.032,0 0.908,0.438 0.926,0.463 0.009,0.012 0.084,0.058 0.168,0.102 0.182,0.094 0.243,0.131 0.373,0.223 a 0.636,0.636 0 0 0 0.111,0.069 c 0.008,0 0.1,0.059 0.204,0.13 0.105,0.072 0.223,0.15 0.262,0.176 0.106,0.068 0.627,0.467 0.739,0.566 0.02,0.017 0.156,0.135 0.304,0.26 0.423,0.363 1.36,1.324 1.36,1.396 0,0.012 0.024,0.044 0.053,0.07 0.03,0.028 0.116,0.133 0.19,0.234 0.076,0.101 0.172,0.226 0.215,0.279 0.042,0.052 0.098,0.126 0.123,0.164 0.025,0.038 0.07,0.101 0.1,0.14 0.03,0.038 0.053,0.078 0.053,0.09 0,0.01 0.014,0.035 0.032,0.056 0.079,0.092 0.309,0.446 0.357,0.55 0.03,0.063 0.065,0.114 0.078,0.114 0.013,0 0.023,0.012 0.023,0.027 0,0.014 0.057,0.128 0.126,0.252 0.299,0.535 0.51,0.987 0.714,1.528 0.08,0.21 0.156,0.404 0.169,0.43 a 0.813,0.813 0 0 1 0.047,0.151 0.745,0.745 0 0 0 0.05,0.153 c 0.013,0.025 0.067,0.205 0.117,0.399 0.051,0.193 0.106,0.393 0.122,0.444 0.025,0.079 0.056,0.23 0.112,0.535 0.008,0.042 0.027,0.139 0.045,0.215 0.066,0.292 0.134,0.96 0.168,1.638 0.028,0.556 0.028,0.456 0,1.01 a 11.278,11.278 0 0 1 -0.232,1.898 l -0.078,0.368 c -0.028,0.135 -0.105,0.426 -0.17,0.648 a 5.453,5.453 0 0 0 -0.118,0.444 c 0,0.023 0.051,0.098 0.114,0.169 0.064,0.07 0.177,0.206 0.253,0.301 l 0.276,0.347 c 0.075,0.095 0.151,0.196 0.168,0.223 a 9.3,9.3 0 0 0 0.375,0.532 c 0.021,0.023 0.038,0.049 0.038,0.058 0,0.019 0.144,0.262 0.278,0.471 0.128,0.199 0.562,1.061 0.682,1.355 0.158,0.387 0.204,0.497 0.234,0.565 0.023,0.054 0.264,0.8 0.336,1.041 0.075,0.253 0.264,1.163 0.306,1.47 l 0.044,0.306 c 0.008,0.05 0.022,0.188 0.033,0.306 0.01,0.118 0.026,0.27 0.035,0.337 0.025,0.188 0.027,1.473 0.002,1.714 -0.098,0.951 -0.148,1.28 -0.297,1.945 l -0.06,0.275 c -0.02,0.093 -0.048,0.196 -0.063,0.23 a 1.5,1.5 0 0 0 -0.06,0.188 c -0.193,0.763 -0.828,2.225 -1.243,2.865 a 0.731,0.731 0 0 0 -0.074,0.132 c 0,0.009 -0.014,0.034 -0.031,0.054 -0.06,0.07 -0.213,0.313 -0.214,0.337 0,0.013 -0.014,0.04 -0.031,0.06 -0.062,0.075 -0.223,0.293 -0.367,0.499 a 8.11,8.11 0 0 1 -0.214,0.283 l -0.16,0.205 a 7.394,7.394 0 0 1 -0.17,0.196 c -0.08,0.09 -0.165,0.194 -0.189,0.23 -0.06,0.088 -0.92,0.946 -1.006,1.004 -0.038,0.026 -0.137,0.11 -0.22,0.189 a 0.751,0.751 0 0 1 -0.18,0.142 c -0.018,0 -0.05,0.024 -0.072,0.053 -0.022,0.03 -0.106,0.102 -0.187,0.16 l -0.23,0.172 a 3.844,3.844 0 0 1 -0.42,0.288 0.636,0.636 0 0 0 -0.128,0.084 5.759,5.759 0 0 1 -0.636,0.394 c -0.084,0.045 -0.16,0.09 -0.168,0.1 a 23.03,23.03 0 0 1 -1.026,0.495 l -0.214,0.091 c -0.085,0.036 -0.25,0.1 -0.368,0.142 a 8.258,8.258 0 0 0 -0.275,0.101 c -0.1,0.042 -0.324,0.113 -0.536,0.17 -0.11,0.03 -0.261,0.07 -0.337,0.092 a 8.388,8.388 0 0 1 -0.537,0.138 c -0.149,0.032 -0.156,0.038 -0.212,0.192 a 9.056,9.056 0 0 1 -0.373,0.964 2.358,2.358 0 0 0 -0.103,0.243 6.32,6.32 0 0 1 -0.343,0.683 c -0.075,0.154 -0.22,0.41 -0.242,0.428 a 0.86,0.86 0 0 0 -0.084,0.138 c -0.433,0.813 -1.497,2.1 -2.367,2.863 -0.376,0.33 -0.923,0.765 -0.96,0.765 a 0.309,0.309 0 0 0 -0.085,0.064 c -0.108,0.101 -0.997,0.664 -1.246,0.789 a 3.053,3.053 0 0 0 -0.184,0.098 c -0.073,0.047 -0.852,0.41 -1.148,0.534 -0.307,0.13 -1.525,0.513 -1.806,0.57 -0.068,0.012 -0.233,0.046 -0.368,0.073 a 7.817,7.817 0 0 1 -0.352,0.064 3.17,3.17 0 0 0 -0.23,0.042 3.42,3.42 0 0 1 -0.367,0.048 4.91,4.91 0 0 0 -0.322,0.035 16.29,16.29 0 0 1 -1.3,0.064 17.827,17.827 0 0 1 -0.628,-0.026 z m 1.27,-3.153 c 0.41,-0.033 1.015,-0.11 1.18,-0.15 0.058,-0.014 0.244,-0.057 0.413,-0.094 0.168,-0.038 0.389,-0.095 0.49,-0.127 0.509,-0.16 0.589,-0.186 0.678,-0.226 a 0.654,0.654 0 0 1 0.114,-0.044 c 0.01,0 0.093,-0.034 0.185,-0.076 0.092,-0.042 0.182,-0.077 0.2,-0.077 0.017,0 0.032,-0.014 0.032,-0.03 0,-0.017 0.018,-0.031 0.04,-0.031 0.082,0 1.085,-0.552 1.292,-0.71 0.017,-0.014 0.147,-0.11 0.289,-0.216 0.478,-0.355 0.524,-0.392 0.76,-0.614 0.575,-0.538 0.834,-0.825 1.248,-1.382 0.486,-0.654 0.937,-1.468 1.179,-2.13 a 5.69,5.69 0 0 1 0.077,-0.199 c 0.021,-0.05 0.082,-0.237 0.134,-0.413 l 0.141,-0.47 c 0.025,-0.083 0.045,-0.189 0.045,-0.236 0,-0.048 0.014,-0.095 0.03,-0.106 0.018,-0.01 0.031,-0.053 0.031,-0.095 0,-0.042 0.02,-0.175 0.044,-0.296 0.025,-0.122 0.053,-0.324 0.064,-0.45 0.011,-0.127 0.032,-0.327 0.047,-0.445 0.015,-0.118 0.028,-2.905 0.028,-6.194 l 0.001,-5.98 -0.084,-0.079 a 5.196,5.196 0 0 0 -0.544,-0.337 c -0.562,-0.318 -0.69,-0.391 -0.88,-0.503 A 0.839,0.839 0 0 0 116.03,54.99 0.03,0.03 0 0 1 116,54.96 0.03,0.03 0 0 0 115.97,54.93 c -0.015,0 -0.13,-0.063 -0.256,-0.139 a 1.475,1.475 0 0 0 -0.26,-0.137 c -0.02,0 -0.035,-0.014 -0.035,-0.031 a 0.031,0.031 0 0 0 -0.032,-0.03 c -0.017,0 -0.156,-0.076 -0.308,-0.169 a 4.44,4.44 0 0 0 -0.29,-0.168 c -0.006,0 -0.102,-0.055 -0.212,-0.123 a 2.247,2.247 0 0 0 -0.215,-0.122 c -0.008,0 -0.101,-0.054 -0.207,-0.119 a 1.954,1.954 0 0 0 -0.261,-0.14 c -0.037,-0.011 -0.067,-0.032 -0.067,-0.046 0,-0.014 -0.024,-0.033 -0.054,-0.043 a 1.638,1.638 0 0 1 -0.189,-0.094 c -0.074,-0.042 -0.146,-0.07 -0.16,-0.06 -0.014,0.008 -0.026,3.188 -0.026,7.065 0,7.552 0.007,7.157 -0.14,7.48 a 0.643,0.643 0 0 0 -0.044,0.114 c 0,0.024 -0.105,0.15 -0.275,0.33 -0.118,0.126 -0.638,0.458 -1.087,0.696 a 0.342,0.342 0 0 0 -0.102,0.072 c -0.006,0.013 -0.025,0.023 -0.044,0.023 -0.018,0 -0.13,0.06 -0.25,0.135 -0.119,0.074 -0.292,0.175 -0.385,0.225 -0.246,0.133 -0.365,0.201 -0.596,0.341 a 2.21,2.21 0 0 1 -0.222,0.126 c -0.009,0 -0.115,0.062 -0.237,0.137 a 1.368,1.368 0 0 1 -0.256,0.138 c -0.02,0 -0.036,0.011 -0.036,0.025 0,0.013 -0.059,0.054 -0.13,0.091 a 8.521,8.521 0 0 0 -0.303,0.167 1243.624,1243.624 0 0 0 -1.398,0.811 c -0.122,0.072 -0.229,0.13 -0.236,0.13 -0.008,0 -0.104,0.056 -0.214,0.123 -0.11,0.068 -0.214,0.123 -0.23,0.123 a 0.03,0.03 0 0 0 -0.03,0.028 c 0,0.016 -0.031,0.039 -0.07,0.05 a 0.245,0.245 0 0 0 -0.084,0.04 0.706,0.706 0 0 1 -0.122,0.076 c -0.199,0.105 -0.29,0.158 -0.306,0.177 -0.015,0.018 -0.378,0.22 -0.513,0.285 -0.038,0.018 -0.069,0.043 -0.069,0.056 0,0.012 -0.016,0.023 -0.036,0.023 -0.02,0 -0.135,0.062 -0.256,0.137 -0.122,0.076 -0.231,0.138 -0.243,0.138 a 0.373,0.373 0 0 0 -0.104,0.059 2.493,2.493 0 0 1 -0.222,0.132 c -0.076,0.041 -0.257,0.146 -0.401,0.233 a 1.995,1.995 0 0 1 -0.293,0.158 c -0.018,0 -0.037,0.01 -0.042,0.023 -0.01,0.023 -0.5,0.314 -0.53,0.314 -0.009,0 -0.112,0.062 -0.23,0.138 a 2.03,2.03 0 0 1 -0.234,0.137 c -0.01,0 -0.121,0.062 -0.246,0.138 a 2.415,2.415 0 0 1 -0.244,0.138 c -0.045,0 -0.44,0.264 -0.44,0.295 0,0.02 0.033,0.056 0.072,0.082 0.04,0.026 0.092,0.066 0.115,0.088 0.024,0.023 0.118,0.1 0.211,0.17 l 0.205,0.16 c 0.02,0.018 0.045,0.032 0.055,0.032 0.019,0 0.203,0.124 0.23,0.155 0.008,0.01 0.036,0.027 0.061,0.038 0.025,0.011 0.073,0.038 0.107,0.06 0.247,0.157 0.418,0.25 0.766,0.418 0.219,0.105 0.425,0.204 0.459,0.218 0.225,0.096 0.546,0.217 0.689,0.26 0.093,0.029 0.245,0.077 0.338,0.11 0.166,0.055 0.25,0.076 0.688,0.166 0.396,0.082 0.947,0.161 1.236,0.178 0.158,0.01 0.295,0.025 0.304,0.034 0.025,0.025 0.527,0.016 0.94,-0.017 z M 97.6,72.874 l 0.368,-0.05 c 0.075,-0.01 0.206,-0.032 0.29,-0.048 l 0.318,-0.06 c 0.09,-0.017 0.19,-0.044 0.22,-0.06 0.03,-0.017 0.081,-0.03 0.112,-0.03 0.069,0 0.806,-0.24 1.08,-0.351 0.49,-0.2 1.097,-0.504 1.48,-0.745 0.104,-0.065 0.213,-0.127 0.243,-0.138 0.029,-0.01 0.13,-0.068 0.222,-0.127 0.093,-0.06 0.176,-0.109 0.185,-0.109 a 3.7,3.7 0 0 0 0.292,-0.168 c 0.152,-0.093 0.283,-0.168 0.29,-0.168 0.008,0 0.114,-0.06 0.236,-0.135 0.218,-0.132 0.349,-0.206 0.589,-0.335 a 0.91,0.91 0 0 0 0.138,-0.085 0.668,0.668 0 0 1 0.122,-0.073 c 0.106,-0.053 0.154,-0.081 0.76,-0.44 0.173,-0.103 0.32,-0.188 0.328,-0.188 0.007,0 0.1,-0.053 0.205,-0.117 0.106,-0.065 0.254,-0.152 0.33,-0.194 l 0.444,-0.255 c 0.168,-0.098 0.416,-0.24 0.55,-0.315 a 5.28,5.28 0 0 0 0.327,-0.194 0.39,0.39 0 0 1 0.1,-0.058 c 0.011,0 0.22,-0.117 0.464,-0.26 0.245,-0.143 0.458,-0.26 0.474,-0.26 0.016,0 0.029,-0.01 0.029,-0.024 0,-0.013 0.052,-0.05 0.115,-0.083 0.063,-0.033 0.212,-0.118 0.33,-0.188 0.12,-0.071 0.278,-0.163 0.353,-0.203 l 0.243,-0.133 a 0.438,0.438 0 0 0 0.117,-0.081 0.046,0.046 0 0 1 0.04,-0.023 c 0.015,0 0.118,-0.055 0.23,-0.122 0.11,-0.068 0.206,-0.123 0.212,-0.123 0.006,0 0.113,-0.062 0.238,-0.138 0.125,-0.076 0.242,-0.138 0.261,-0.138 0.02,0 0.035,-0.013 0.035,-0.03 a 0.03,0.03 0 0 1 0.03,-0.03 c 0.016,0 0.116,-0.053 0.222,-0.118 0.105,-0.064 0.357,-0.211 0.56,-0.327 a 3.51,3.51 0 0 0 0.39,-0.242 c 0.035,-0.053 0.028,-4.91 -0.008,-4.932 -0.017,-0.01 -0.03,-0.004 -0.03,0.013 0,0.018 -0.016,0.033 -0.035,0.033 -0.019,0 -0.136,0.062 -0.261,0.138 a 2.943,2.943 0 0 1 -0.24,0.137 c -0.008,0 -0.09,0.05 -0.184,0.109 -0.093,0.059 -0.193,0.117 -0.222,0.127 -0.03,0.011 -0.138,0.073 -0.24,0.137 a 1.506,1.506 0 0 1 -0.208,0.117 1.6,1.6 0 0 0 -0.214,0.123 1.805,1.805 0 0 1 -0.212,0.122 c -0.01,0 -0.163,0.09 -0.342,0.2 a 5.99,5.99 0 0 1 -0.338,0.198 c -0.007,0 -0.138,0.076 -0.29,0.169 a 2.84,2.84 0 0 1 -0.3,0.168 0.554,0.554 0 0 0 -0.13,0.072 c -0.059,0.04 -0.169,0.106 -0.244,0.148 a 52.39,52.39 0 0 0 -0.551,0.316 l -0.55,0.315 c -0.075,0.042 -0.203,0.116 -0.285,0.164 a 1.275,1.275 0 0 1 -0.163,0.087 0.14,0.14 0 0 0 -0.052,0.032 c -0.02,0.018 -0.148,0.095 -0.282,0.172 -0.135,0.077 -0.355,0.206 -0.49,0.286 -0.245,0.146 -0.53,0.305 -0.704,0.393 a 4.78,4.78 0 0 0 -0.291,0.174 c -0.176,0.112 -0.345,0.21 -0.659,0.379 a 0.627,0.627 0 0 0 -0.107,0.068 c -0.013,0.016 -0.156,0.096 -0.474,0.268 a 0.68,0.68 0 0 0 -0.107,0.067 c -0.008,0.01 -0.098,0.063 -0.2,0.12 -0.371,0.204 -0.432,0.239 -0.635,0.364 -0.114,0.07 -0.214,0.127 -0.222,0.127 -0.008,0 -0.101,0.053 -0.208,0.118 a 1.953,1.953 0 0 1 -0.26,0.14 c -0.037,0.012 -0.068,0.034 -0.068,0.05 a 0.03,0.03 0 0 1 -0.029,0.029 c -0.016,0 -0.132,0.062 -0.257,0.137 a 2.269,2.269 0 0 1 -0.245,0.138 c -0.01,0 -0.113,0.06 -0.229,0.134 -0.193,0.125 -0.538,0.32 -0.701,0.4 -0.038,0.018 -0.07,0.043 -0.07,0.056 0,0.012 -0.013,0.023 -0.03,0.023 -0.018,0 -0.199,0.096 -0.402,0.214 a 7.02,7.02 0 0 1 -0.386,0.214 0.748,0.748 0 0 0 -0.11,0.042 c -0.245,0.104 -0.602,0.142 -0.8,0.083 -0.3,-0.089 -0.442,-0.143 -0.544,-0.207 a 0.842,0.842 0 0 0 -0.129,-0.07 4.07,4.07 0 0 1 -0.29,-0.17 3.967,3.967 0 0 0 -0.291,-0.168 c -0.008,0 -0.15,-0.08 -0.315,-0.178 -0.617,-0.367 -0.837,-0.495 -0.852,-0.495 -0.01,0 -0.103,-0.055 -0.21,-0.123 a 1.76,1.76 0 0 0 -0.212,-0.122 c -0.01,0 -0.142,-0.076 -0.294,-0.169 A 3.83,3.83 0 0 0 94.678,66.227 2.65,2.65 0 0 1 94.44,66.093 c -0.526,-0.317 -0.855,-0.509 -0.872,-0.509 a 1.74,1.74 0 0 1 -0.212,-0.122 1.963,1.963 0 0 0 -0.21,-0.123 c -0.008,0 -0.105,-0.055 -0.215,-0.122 a 2.318,2.318 0 0 0 -0.214,-0.123 c -0.008,0 -0.115,-0.062 -0.24,-0.138 a 1.475,1.475 0 0 0 -0.262,-0.137 c -0.018,0 -0.034,-0.014 -0.034,-0.031 a 0.03,0.03 0 0 0 -0.03,-0.03 2.3,2.3 0 0 1 -0.307,-0.169 4.659,4.659 0 0 0 -0.29,-0.168 4.56,4.56 0 0 1 -0.289,-0.169 3.528,3.528 0 0 0 -0.293,-0.168 c -0.01,0 -0.104,-0.055 -0.211,-0.123 a 1.673,1.673 0 0 0 -0.213,-0.122 c -0.01,0 -0.105,-0.053 -0.211,-0.117 a 5.266,5.266 0 0 0 -0.346,-0.198 c -0.4,-0.237 -0.532,-0.315 -0.795,-0.466 a 45.476,45.476 0 0 1 -0.49,-0.286 c -0.1,-0.06 -0.272,-0.159 -0.382,-0.22 -0.32,-0.178 -0.481,-0.271 -0.668,-0.384 a 0.968,0.968 0 0 0 -0.21,-0.105 c -0.02,0 -0.05,0.093 -0.07,0.222 -0.018,0.122 -0.047,0.312 -0.065,0.422 -0.034,0.21 -0.043,1.643 -0.012,1.775 0.01,0.042 0.03,0.187 0.046,0.321 0.064,0.581 0.284,1.51 0.457,1.93 a 10.062,10.062 0 0 0 0.607,1.368 c 0.215,0.393 0.578,0.947 0.807,1.233 0.444,0.554 0.735,0.867 1.145,1.23 0.224,0.198 0.39,0.333 0.595,0.485 0.069,0.05 0.141,0.106 0.162,0.124 0.1,0.085 0.71,0.473 0.744,0.473 0.021,0 0.043,0.01 0.049,0.023 0.027,0.063 0.86,0.471 1.234,0.606 0.085,0.03 0.167,0.067 0.183,0.08 0.016,0.015 0.06,0.026 0.097,0.026 0.038,0 0.077,0.012 0.086,0.027 0.009,0.015 0.067,0.037 0.128,0.048 a 0.68,0.68 0 0 1 0.16,0.05 c 0.068,0.037 0.748,0.212 0.83,0.212 0.034,0 0.087,0.013 0.117,0.03 0.06,0.034 0.37,0.08 0.834,0.124 0.176,0.017 0.349,0.035 0.382,0.042 0.12,0.022 1.413,-0.01 1.638,-0.04 z m 23.552,-5.087 c 0.089,-0.034 0.21,-0.086 0.269,-0.114 a 5.604,5.604 0 0 0 0.76,-0.38 c 0.006,-0.014 0.025,-0.025 0.043,-0.025 0.038,0 0.613,-0.347 0.731,-0.441 a 2.7,2.7 0 0 1 0.149,-0.11 11.13,11.13 0 0 0 1.165,-0.979 c 0.195,-0.195 0.734,-0.813 0.734,-0.842 0,-0.01 0.029,-0.05 0.064,-0.086 0.189,-0.201 0.667,-0.96 0.919,-1.461 0.193,-0.384 0.395,-0.842 0.395,-0.898 0,-0.02 0.018,-0.07 0.04,-0.112 a 7.69,7.69 0 0 0 0.246,-0.75 c 0.064,-0.217 0.203,-0.9 0.237,-1.16 0.088,-0.677 0.103,-1.898 0.026,-2.24 a 1.35,1.35 0 0 1 -0.028,-0.236 c 0,-0.186 -0.219,-1.22 -0.305,-1.447 a 17.561,17.561 0 0 1 -0.123,-0.368 2.355,2.355 0 0 0 -0.127,-0.335 0.12,0.12 0 0 1 -0.027,-0.07 0.78,0.78 0 0 0 -0.068,-0.186 1.99,1.99 0 0 1 -0.07,-0.159 c -0.006,-0.048 -0.3,-0.628 -0.403,-0.796 a 5.48,5.48 0 0 1 -0.144,-0.245 c -0.066,-0.137 -0.373,-0.593 -0.432,-0.642 -0.026,-0.022 -0.047,-0.05 -0.047,-0.065 0,-0.045 -0.47,-0.607 -0.756,-0.905 -0.39,-0.405 -0.904,-0.86 -1.19,-1.051 -0.336,-0.226 -0.52,-0.356 -0.529,-0.376 a 0.046,0.046 0 0 0 -0.038,-0.023 c -0.016,0 -0.149,-0.073 -0.296,-0.162 -0.41,-0.25 -0.768,-0.45 -0.803,-0.45 a 0.031,0.031 0 0 1 -0.031,-0.03 0.03,0.03 0 0 0 -0.03,-0.031 c -0.017,0 -0.12,-0.055 -0.23,-0.123 a 2.247,2.247 0 0 0 -0.215,-0.122 c -0.008,0 -0.107,-0.057 -0.221,-0.128 -0.194,-0.12 -0.522,-0.31 -0.988,-0.576 a 143.506,143.506 0 0 1 -1.198,-0.692 0.96,0.96 0 0 0 -0.207,-0.104 c -0.019,0 -0.034,-0.01 -0.034,-0.023 0,-0.013 -0.032,-0.038 -0.07,-0.056 -0.15,-0.07 -0.344,-0.183 -0.354,-0.205 -0.006,-0.012 -0.028,-0.023 -0.051,-0.023 a 0.149,0.149 0 0 1 -0.083,-0.038 0.65,0.65 0 0 0 -0.102,-0.072 68.893,68.893 0 0 1 -0.442,-0.257 c -0.21,-0.123 -0.459,-0.264 -0.551,-0.315 a 6.333,6.333 0 0 1 -0.276,-0.16 0.997,0.997 0 0 0 -0.176,-0.089 c -0.038,-0.012 -0.069,-0.035 -0.069,-0.05 0,-0.016 -0.014,-0.029 -0.031,-0.029 -0.018,0 -0.12,-0.055 -0.226,-0.122 a 1.673,1.673 0 0 0 -0.213,-0.123 c -0.01,0 -0.109,-0.055 -0.219,-0.122 a 2.04,2.04 0 0 0 -0.216,-0.123 c -0.01,0 -0.033,-0.014 -0.053,-0.032 a 10.7,10.7 0 0 0 -0.695,-0.404 3.351,3.351 0 0 1 -0.25,-0.15 0.38,0.38 0 0 0 -0.102,-0.057 c -0.01,0 -0.122,-0.062 -0.247,-0.138 a 1.573,1.573 0 0 0 -0.258,-0.137 c -0.017,0 -0.031,-0.01 -0.032,-0.023 0,-0.013 -0.03,-0.038 -0.068,-0.056 a 6.45,6.45 0 0 1 -0.513,-0.285 c -0.013,-0.017 -0.079,-0.054 -0.352,-0.2 a 1.908,1.908 0 0 0 -0.256,-0.146 l -0.165,-0.084 -0.194,0.105 c -0.106,0.057 -0.297,0.167 -0.423,0.243 a 1.548,1.548 0 0 1 -0.261,0.14 c -0.018,0 -0.033,0.013 -0.033,0.03 0,0.017 -0.014,0.03 -0.031,0.03 -0.017,0 -0.13,0.061 -0.253,0.135 a 10.32,10.32 0 0 1 -0.635,0.364 0.452,0.452 0 0 0 -0.091,0.053 8.101,8.101 0 0 1 -0.398,0.235 l -0.728,0.418 c -0.19,0.11 -0.373,0.209 -0.406,0.22 -0.033,0.01 -0.06,0.032 -0.06,0.047 0,0.016 -0.015,0.029 -0.033,0.029 a 0.92,0.92 0 0 0 -0.198,0.106 4.487,4.487 0 0 1 -0.32,0.184 c -0.167,0.085 -0.193,0.146 -0.085,0.203 0.038,0.02 0.076,0.045 0.084,0.055 0.008,0.01 0.082,0.053 0.164,0.095 0.081,0.042 0.171,0.09 0.2,0.107 l 0.357,0.21 0.528,0.314 c 0.122,0.074 0.231,0.134 0.242,0.134 0.01,0 0.103,0.053 0.205,0.117 0.103,0.065 0.211,0.126 0.24,0.137 0.03,0.011 0.13,0.069 0.223,0.128 0.093,0.06 0.176,0.108 0.183,0.108 0.007,0 0.116,0.062 0.24,0.138 0.126,0.076 0.243,0.138 0.262,0.138 0.019,0 0.035,0.014 0.035,0.03 0,0.017 0.013,0.03 0.029,0.03 0.016,0 0.155,0.077 0.307,0.17 0.153,0.092 0.285,0.168 0.293,0.168 0.008,0 0.14,0.076 0.292,0.168 0.152,0.093 0.283,0.169 0.29,0.169 0.008,0 0.102,0.055 0.209,0.122 0.106,0.067 0.202,0.122 0.212,0.122 0.01,0 0.12,0.062 0.246,0.138 0.124,0.076 0.242,0.138 0.26,0.138 0.02,0 0.035,0.01 0.035,0.023 0,0.013 0.042,0.042 0.093,0.064 0.05,0.023 0.11,0.058 0.13,0.078 0.033,0.032 0.104,0.072 0.391,0.217 0.033,0.017 0.06,0.041 0.06,0.054 0,0.013 0.015,0.023 0.034,0.023 0.032,0 0.083,0.029 0.645,0.363 0.146,0.087 0.274,0.158 0.284,0.158 0.01,0 0.105,0.055 0.212,0.122 0.107,0.068 0.201,0.123 0.21,0.123 0.01,0 0.108,0.055 0.219,0.122 0.11,0.068 0.215,0.123 0.232,0.123 0.018,0 0.032,0.01 0.032,0.023 0,0.012 0.055,0.049 0.122,0.081 0.068,0.032 0.123,0.07 0.123,0.082 0,0.013 0.04,0.032 0.091,0.043 0.05,0.012 0.092,0.033 0.092,0.048 0,0.015 0.035,0.036 0.077,0.047 0.042,0.01 0.076,0.032 0.076,0.047 0,0.015 0.014,0.027 0.032,0.027 0.017,0 0.156,0.076 0.308,0.168 0.152,0.093 0.282,0.169 0.29,0.169 0.008,0 0.105,0.055 0.216,0.122 0.11,0.067 0.206,0.123 0.213,0.123 0.006,0 0.113,0.062 0.238,0.137 0.124,0.076 0.242,0.138 0.26,0.138 0.02,0 0.035,0.014 0.035,0.03 0,0.018 0.014,0.031 0.03,0.031 0.017,0 0.117,0.053 0.222,0.117 a 5.37,5.37 0 0 0 0.347,0.198 l 0.29,0.172 c 0.126,0.073 0.342,0.2 0.48,0.283 0.137,0.082 0.258,0.149 0.268,0.149 0.01,0 0.145,0.078 0.3,0.174 0.39,0.24 0.61,0.458 0.744,0.734 0.208,0.433 0.198,0.114 0.197,6.556 v 5.832 c 0,0.038 0.083,0.025 0.252,-0.04 z M 99.585,65.118 c 0.09,-0.048 0.288,-0.163 0.439,-0.255 0.15,-0.092 0.28,-0.167 0.289,-0.167 0.008,0 0.138,-0.076 0.29,-0.168 0.152,-0.093 0.289,-0.169 0.303,-0.169 0.015,0 0.031,-0.01 0.037,-0.023 a 0.709,0.709 0 0 1 0.163,-0.1 c 0.084,-0.041 0.16,-0.083 0.168,-0.092 a 44.7,44.7 0 0 1 1.072,-0.62 c 0.1,-0.055 0.403,-0.233 0.796,-0.466 0.093,-0.055 0.227,-0.13 0.299,-0.165 0.071,-0.036 0.13,-0.085 0.13,-0.109 0,-0.024 -0.08,-0.089 -0.176,-0.145 a 28.576,28.576 0 0 1 -0.227,-0.132 47.922,47.922 0 0 1 -0.998,-0.586 2.283,2.283 0 0 0 -0.242,-0.134 c -0.01,0 -0.117,-0.062 -0.239,-0.137 a 1.913,1.913 0 0 0 -0.243,-0.138 c -0.012,0 -0.097,-0.048 -0.189,-0.107 a 1.68,1.68 0 0 0 -0.181,-0.108 c -0.007,0 -0.116,-0.062 -0.24,-0.137 a 1.474,1.474 0 0 0 -0.262,-0.138 c -0.019,0 -0.034,-0.014 -0.034,-0.03 a 0.03,0.03 0 0 0 -0.03,-0.031 2.3,2.3 0 0 1 -0.307,-0.169 3.924,3.924 0 0 0 -0.293,-0.168 c -0.008,0 -0.14,-0.076 -0.292,-0.168 a 4.092,4.092 0 0 0 -0.29,-0.169 c -0.008,0 -0.102,-0.055 -0.209,-0.122 a 1.709,1.709 0 0 0 -0.212,-0.123 c -0.01,0 -0.12,-0.062 -0.246,-0.138 a 1.475,1.475 0 0 0 -0.26,-0.137 c -0.02,0 -0.035,-0.014 -0.035,-0.031 a 0.031,0.031 0 0 0 -0.032,-0.03 0.962,0.962 0 0 1 -0.204,-0.11 c -0.094,-0.06 -0.2,-0.123 -0.236,-0.14 a 1.63,1.63 0 0 1 -0.127,-0.066 385.934,385.934 0 0 0 -0.77,-0.454 2.813,2.813 0 0 0 -0.268,-0.15 c -0.01,0 -0.105,-0.054 -0.212,-0.122 a 1.87,1.87 0 0 0 -0.21,-0.122 2.04,2.04 0 0 1 -0.219,-0.123 1.292,1.292 0 0 0 -0.232,-0.122 c -0.018,0 -0.032,-0.01 -0.032,-0.023 0,-0.013 -0.03,-0.038 -0.069,-0.056 -0.191,-0.092 -0.498,-0.27 -0.507,-0.293 a 0.045,0.045 0 0 0 -0.04,-0.026 c -0.015,0 -0.153,-0.076 -0.305,-0.168 a 4.44,4.44 0 0 0 -0.29,-0.169 c -0.006,0 -0.102,-0.055 -0.212,-0.122 a 2.318,2.318 0 0 0 -0.214,-0.123 c -0.008,0 -0.116,-0.062 -0.24,-0.138 a 1.474,1.474 0 0 0 -0.262,-0.137 c -0.019,0 -0.034,-0.014 -0.034,-0.031 a 0.03,0.03 0 0 0 -0.03,-0.03 c -0.017,0 -0.12,-0.056 -0.23,-0.123 a 2.141,2.141 0 0 0 -0.216,-0.123 c -0.008,0 -0.138,-0.075 -0.287,-0.168 a 3.164,3.164 0 0 0 -0.291,-0.168 c -0.01,0 -0.141,-0.076 -0.291,-0.169 a 3.164,3.164 0 0 0 -0.29,-0.168 c -0.011,0 -0.147,-0.078 -0.302,-0.173 -0.383,-0.233 -0.61,-0.459 -0.745,-0.737 -0.208,-0.433 -0.199,-0.115 -0.19,-6.584 0.008,-5.807 0.008,-5.825 -0.052,-5.825 -0.034,0 -0.101,0.021 -0.15,0.046 a 0.426,0.426 0 0 1 -0.116,0.046 0.909,0.909 0 0 0 -0.172,0.067 c -0.08,0.037 -0.151,0.069 -0.16,0.07 -0.046,0.007 -0.629,0.307 -0.637,0.328 -0.006,0.014 -0.025,0.025 -0.043,0.025 -0.039,0 -0.632,0.36 -0.692,0.42 a 0.549,0.549 0 0 1 -0.105,0.074 c -0.073,0.039 -0.085,0.048 -0.241,0.178 a 0.575,0.575 0 0 1 -0.133,0.093 c -0.028,0 -0.651,0.543 -0.861,0.75 -0.086,0.084 -0.286,0.305 -0.445,0.49 -0.26,0.304 -0.354,0.423 -0.613,0.781 -0.094,0.129 -0.455,0.713 -0.521,0.842 l -0.197,0.383 a 8.39,8.39 0 0 0 -0.402,0.934 l -0.07,0.183 a 4.682,4.682 0 0 0 -0.09,0.291 c -0.035,0.127 -0.077,0.278 -0.095,0.337 A 9.531,9.531 0 0 0 84.8,49.984 c -0.016,0.118 -0.043,0.293 -0.06,0.39 -0.041,0.228 -0.06,1.37 -0.03,1.723 0.037,0.41 0.086,0.806 0.12,0.963 l 0.081,0.384 c 0.03,0.135 0.071,0.304 0.094,0.376 a 0.92,0.92 0 0 1 0.042,0.177 c 0,0.025 0.012,0.069 0.026,0.098 0.015,0.03 0.072,0.191 0.127,0.36 0.055,0.168 0.112,0.319 0.126,0.335 0.015,0.016 0.027,0.049 0.027,0.073 0,0.025 0.036,0.122 0.08,0.216 0.244,0.518 0.372,0.772 0.471,0.937 0.061,0.101 0.12,0.204 0.132,0.23 0.024,0.052 0.045,0.084 0.232,0.365 0.074,0.11 0.163,0.238 0.199,0.283 0.036,0.045 0.127,0.165 0.202,0.268 0.076,0.102 0.148,0.186 0.16,0.186 0.014,0 0.025,0.019 0.025,0.042 0,0.048 1.001,1.065 1.127,1.144 0.045,0.029 0.158,0.115 0.25,0.193 0.093,0.077 0.198,0.16 0.234,0.184 0.298,0.2 0.519,0.353 0.532,0.368 0.008,0.01 0.036,0.027 0.061,0.04 0.025,0.012 0.074,0.038 0.108,0.058 0.737,0.437 0.948,0.556 0.971,0.55 0.013,-0.004 0.023,0.007 0.023,0.023 0,0.017 0.014,0.03 0.032,0.03 0.017,0 0.118,0.056 0.225,0.123 0.107,0.068 0.202,0.123 0.212,0.123 0.015,0 0.37,0.207 1.025,0.6 0.122,0.074 0.233,0.135 0.245,0.135 0.013,0 0.07,0.032 0.13,0.072 0.058,0.04 0.203,0.124 0.32,0.188 0.118,0.064 0.251,0.142 0.296,0.173 a 0.417,0.417 0 0 0 0.098,0.057 c 0.01,0 0.12,0.062 0.245,0.137 0.124,0.076 0.242,0.138 0.26,0.138 0.02,0 0.035,0.01 0.036,0.023 0,0.013 0.055,0.05 0.122,0.082 0.067,0.032 0.122,0.069 0.122,0.081 0,0.013 0.041,0.033 0.092,0.044 0.05,0.01 0.092,0.031 0.092,0.045 0,0.013 0.024,0.032 0.054,0.042 0.03,0.01 0.074,0.032 0.1,0.049 0.097,0.066 0.614,0.369 0.629,0.369 0.008,0 0.102,0.055 0.208,0.122 0.107,0.068 0.203,0.123 0.214,0.123 0.01,0 0.106,0.053 0.212,0.118 0.107,0.066 0.224,0.129 0.261,0.14 0.037,0.012 0.067,0.035 0.067,0.05 0,0.016 0.014,0.029 0.032,0.029 0.017,0 0.118,0.055 0.225,0.122 0.107,0.068 0.202,0.123 0.213,0.123 0.01,0 0.11,0.055 0.22,0.122 0.11,0.068 0.206,0.123 0.215,0.123 0.01,0 0.033,0.014 0.053,0.032 0.038,0.033 0.398,0.242 0.696,0.404 0.092,0.05 0.205,0.118 0.25,0.15 a 0.38,0.38 0 0 0 0.1,0.057 c 0.012,0 0.123,0.062 0.248,0.137 0.125,0.076 0.241,0.138 0.258,0.138 0.017,0 0.032,0.01 0.032,0.023 0,0.013 0.03,0.038 0.069,0.055 0.12,0.057 0.343,0.182 0.36,0.201 a 0.24,0.24 0 0 0 0.083,0.04 c 0.038,0.012 0.07,0.035 0.07,0.05 a 0.03,0.03 0 0 0 0.03,0.03 c 0.016,0 0.095,0.04 0.176,0.088 0.303,0.185 0.544,0.301 0.589,0.285 0.025,-0.01 0.12,-0.057 0.21,-0.105 z m 6.36,-3.679 a 3.98,3.98 0 0 1 0.244,-0.142 c 0.273,-0.149 0.393,-0.217 0.78,-0.443 0.194,-0.114 0.421,-0.244 0.505,-0.29 0.085,-0.046 0.247,-0.141 0.36,-0.211 0.115,-0.07 0.214,-0.127 0.22,-0.127 0.007,0 0.128,-0.07 0.268,-0.157 0.244,-0.15 0.575,-0.337 0.721,-0.407 0.038,-0.018 0.07,-0.044 0.07,-0.056 0,-0.013 0.015,-0.023 0.034,-0.023 0.019,0 0.136,-0.062 0.261,-0.138 0.125,-0.076 0.232,-0.138 0.238,-0.138 0.006,0 0.102,-0.055 0.213,-0.122 0.11,-0.068 0.216,-0.123 0.233,-0.123 a 0.031,0.031 0 0 0 0.03,-0.03 c 0,-0.017 0.02,-0.03 0.045,-0.03 a 0.151,0.151 0 0 0 0.085,-0.04 c 0.042,-0.038 0.055,-0.046 0.3,-0.177 0.075,-0.041 0.144,-0.083 0.153,-0.093 0.008,-0.01 0.118,-0.075 0.245,-0.142 l 0.23,-0.124 v -6.26 l -0.23,-0.123 a 2.54,2.54 0 0 1 -0.245,-0.142 0.352,0.352 0 0 0 -0.077,-0.051 c -0.28,-0.15 -0.342,-0.187 -0.377,-0.22 a 0.146,0.146 0 0 0 -0.084,-0.038 c -0.024,0 -0.044,-0.014 -0.044,-0.031 a 0.031,0.031 0 0 0 -0.031,-0.03 c -0.017,0 -0.122,-0.056 -0.233,-0.123 a 2.805,2.805 0 0 0 -0.213,-0.123 c -0.006,0 -0.113,-0.062 -0.238,-0.137 a 1.475,1.475 0 0 0 -0.261,-0.138 c -0.019,0 -0.035,-0.01 -0.035,-0.023 0,-0.013 -0.03,-0.038 -0.069,-0.056 -0.146,-0.07 -0.477,-0.258 -0.721,-0.408 a 3.906,3.906 0 0 0 -0.267,-0.156 2.65,2.65 0 0 1 -0.22,-0.127 c -0.114,-0.07 -0.276,-0.165 -0.36,-0.211 a 29.803,29.803 0 0 1 -0.506,-0.29 26.633,26.633 0 0 0 -0.765,-0.436 c -0.093,-0.051 -0.213,-0.118 -0.268,-0.15 -0.097,-0.055 -0.102,-0.055 -0.199,0 -0.055,0.032 -0.175,0.099 -0.268,0.15 -0.28,0.154 -0.398,0.221 -0.765,0.436 -0.194,0.114 -0.409,0.237 -0.478,0.274 -0.068,0.038 -0.242,0.14 -0.386,0.226 a 3.04,3.04 0 0 1 -0.28,0.159 c -0.01,0 -0.094,0.048 -0.186,0.107 a 0.977,0.977 0 0 1 -0.197,0.107 0.046,0.046 0 0 0 -0.04,0.026 c -0.01,0.023 -0.316,0.2 -0.508,0.293 -0.037,0.018 -0.068,0.043 -0.068,0.056 0,0.012 -0.016,0.023 -0.035,0.023 -0.019,0 -0.137,0.062 -0.261,0.138 a 2.754,2.754 0 0 1 -0.242,0.137 3.23,3.23 0 0 0 -0.262,0.154 3.153,3.153 0 0 1 -0.262,0.153 c -0.008,0 -0.117,0.062 -0.242,0.137 -0.124,0.076 -0.24,0.138 -0.255,0.138 a 0.045,0.045 0 0 0 -0.039,0.026 1.276,1.276 0 0 1 -0.24,0.15 l -0.23,0.124 -0.007,3.118 -0.008,3.12 0.133,0.083 c 0.073,0.047 0.15,0.084 0.168,0.084 0.02,0 0.036,0.014 0.036,0.031 0,0.017 0.02,0.03 0.043,0.03 0.024,0 0.062,0.018 0.084,0.039 0.023,0.021 0.103,0.072 0.179,0.113 0.244,0.131 0.257,0.139 0.3,0.178 a 0.151,0.151 0 0 0 0.085,0.038 c 0.024,0 0.043,0.014 0.043,0.03 0,0.018 0.014,0.031 0.032,0.031 0.017,0 0.121,0.055 0.232,0.123 0.111,0.067 0.207,0.122 0.213,0.122 0.006,0 0.113,0.062 0.238,0.138 0.125,0.076 0.234,0.138 0.244,0.138 0.009,0 0.127,0.069 0.263,0.153 0.136,0.084 0.255,0.153 0.266,0.153 0.01,0 0.141,0.076 0.29,0.168 0.15,0.093 0.28,0.169 0.29,0.169 0.008,0 0.142,0.076 0.298,0.17 0.156,0.094 0.303,0.181 0.329,0.195 0.025,0.013 0.218,0.124 0.428,0.246 0.423,0.246 0.54,0.313 0.812,0.46 0.1,0.055 0.21,0.12 0.244,0.142 a 0.238,0.238 0 0 0 0.108,0.042 0.238,0.238 0 0 0 0.108,-0.042 z M 98.28,49.937 c 0.007,-5.953 0.015,-7.132 0.05,-7.21 0.245,-0.534 0.373,-0.677 0.872,-0.97 0.205,-0.119 0.458,-0.27 0.563,-0.335 a 1.83,1.83 0 0 1 0.207,-0.118 c 0.009,0 0.117,-0.06 0.24,-0.135 a 12.41,12.41 0 0 1 0.641,-0.366 c 0.072,-0.04 0.225,-0.129 0.34,-0.199 0.115,-0.07 0.214,-0.127 0.22,-0.127 0.006,0 0.113,-0.062 0.238,-0.137 0.125,-0.076 0.242,-0.138 0.259,-0.138 0.018,0 0.036,-0.01 0.042,-0.023 0.013,-0.03 0.505,-0.314 0.543,-0.314 0.016,0 0.033,-0.01 0.039,-0.024 a 4.27,4.27 0 0 1 0.423,-0.26 c 0.499,-0.285 0.537,-0.307 0.82,-0.473 0.123,-0.072 0.23,-0.13 0.237,-0.13 0.008,0 0.104,-0.056 0.214,-0.123 a 1.3,1.3 0 0 1 0.23,-0.123 c 0.017,0 0.03,-0.013 0.03,-0.028 0,-0.016 0.031,-0.039 0.07,-0.05 a 0.245,0.245 0 0 0 0.083,-0.04 0.701,0.701 0 0 1 0.123,-0.076 c 0.199,-0.105 0.29,-0.158 0.306,-0.177 0.015,-0.018 0.378,-0.22 0.513,-0.285 0.037,-0.018 0.068,-0.043 0.069,-0.056 0,-0.012 0.014,-0.023 0.031,-0.023 0.017,0 0.122,-0.055 0.233,-0.122 0.11,-0.067 0.206,-0.123 0.212,-0.123 0.006,0 0.114,-0.062 0.238,-0.137 0.125,-0.076 0.243,-0.138 0.262,-0.138 0.019,0 0.034,-0.014 0.034,-0.03 0,-0.018 0.013,-0.031 0.028,-0.031 0.016,0 0.133,-0.062 0.261,-0.138 0.129,-0.076 0.247,-0.138 0.263,-0.138 a 0.03,0.03 0 0 0 0.03,-0.03 0.03,0.03 0 0 1 0.03,-0.031 c 0.016,0 0.131,-0.062 0.256,-0.138 0.125,-0.076 0.235,-0.138 0.246,-0.138 0.01,0 0.115,-0.062 0.233,-0.138 a 2.03,2.03 0 0 1 0.234,-0.137 c 0.01,0 0.12,-0.062 0.246,-0.138 0.125,-0.076 0.235,-0.138 0.244,-0.138 0.042,0 0.44,-0.263 0.44,-0.292 0,-0.042 -0.405,-0.359 -0.777,-0.608 A 5.223,5.223 0 0 0 108.08,35.15 c -0.007,0 -0.084,-0.046 -0.172,-0.102 a 13.557,13.557 0 0 0 -1.016,-0.512 8.955,8.955 0 0 0 -0.69,-0.26 13.24,13.24 0 0 1 -0.337,-0.109 C 105.698,34.111 105.609,34.089 105.177,34 a 8.628,8.628 0 0 0 -1.96,-0.198 c -0.623,10e-4 -1.341,0.065 -1.714,0.153 l -0.398,0.092 c -0.43,0.099 -0.89,0.235 -1.133,0.336 -0.43,0.178 -0.604,0.257 -0.903,0.41 a 9.91,9.91 0 0 0 -1.729,1.122 c -0.313,0.26 -1.015,0.963 -1.226,1.227 -0.224,0.28 -0.299,0.378 -0.464,0.61 -0.349,0.49 -0.806,1.316 -0.985,1.778 l -0.087,0.228 a 2.873,2.873 0 0 1 -0.07,0.168 2.439,2.439 0 0 0 -0.076,0.23 c -0.03,0.101 -0.074,0.253 -0.1,0.337 l -0.073,0.246 c -0.089,0.301 -0.177,0.81 -0.242,1.392 -0.056,0.51 -0.059,0.812 -0.06,6.494 -10e-4,5.807 0,5.96 0.057,6.032 0.032,0.04 0.111,0.1 0.176,0.133 0.065,0.033 0.276,0.151 0.47,0.262 l 0.413,0.237 0.298,0.174 c 0.13,0.077 0.251,0.14 0.268,0.14 0.017,0 0.031,0.013 0.031,0.03 0,0.017 0.014,0.03 0.03,0.03 0.016,0 0.132,0.063 0.256,0.139 0.125,0.075 0.243,0.137 0.262,0.137 0.019,0 0.034,0.014 0.034,0.031 0,0.017 0.014,0.03 0.032,0.03 0.017,0 0.155,0.076 0.308,0.169 0.152,0.093 0.282,0.168 0.289,0.168 0.007,0 0.103,0.055 0.213,0.123 0.11,0.067 0.207,0.122 0.214,0.122 0.008,0 0.102,0.054 0.208,0.119 0.107,0.065 0.224,0.128 0.261,0.14 0.037,0.011 0.067,0.032 0.067,0.046 0,0.014 0.024,0.033 0.054,0.043 0.03,0.01 0.115,0.052 0.19,0.095 0.075,0.042 0.147,0.066 0.16,0.053 0.013,-0.013 0.028,-3.226 0.032,-7.141 z m 2.295,-0.366 c 0.018,0 0.134,-0.062 0.26,-0.138 0.124,-0.076 0.232,-0.138 0.24,-0.138 0.007,0 0.09,-0.048 0.183,-0.108 0.093,-0.06 0.193,-0.117 0.222,-0.128 0.03,-0.01 0.138,-0.072 0.24,-0.136 0.103,-0.065 0.196,-0.118 0.206,-0.118 0.01,0 0.12,-0.06 0.242,-0.134 a 72.243,72.243 0 0 1 1.241,-0.728 c 0.106,-0.065 0.201,-0.117 0.212,-0.117 0.01,0 0.106,-0.055 0.213,-0.123 0.106,-0.067 0.2,-0.122 0.208,-0.122 0.008,0 0.116,-0.06 0.238,-0.133 0.123,-0.073 0.375,-0.22 0.56,-0.327 0.58,-0.334 0.911,-0.527 1.14,-0.664 0.122,-0.072 0.23,-0.132 0.24,-0.132 0.01,0 0.09,-0.047 0.18,-0.104 0.09,-0.058 0.251,-0.152 0.358,-0.21 0.282,-0.153 0.387,-0.213 0.648,-0.371 0.127,-0.078 0.246,-0.141 0.264,-0.141 0.018,0 0.033,-0.014 0.033,-0.03 0,-0.018 0.014,-0.031 0.031,-0.031 0.017,0 0.131,-0.06 0.253,-0.135 0.218,-0.132 0.349,-0.206 0.589,-0.335 0.067,-0.037 0.13,-0.074 0.137,-0.084 0.008,-0.01 0.098,-0.063 0.2,-0.118 0.371,-0.205 0.432,-0.24 0.635,-0.365 0.114,-0.07 0.214,-0.127 0.221,-0.127 0.008,0 0.116,-0.062 0.24,-0.138 0.126,-0.075 0.243,-0.137 0.262,-0.137 0.02,0 0.035,-0.014 0.035,-0.031 0,-0.017 0.012,-0.03 0.028,-0.03 0.028,0 0.35,-0.184 0.829,-0.475 0.143,-0.086 0.284,-0.166 0.314,-0.177 0.03,-0.011 0.13,-0.069 0.222,-0.128 0.093,-0.06 0.178,-0.109 0.188,-0.109 0.01,0 0.096,-0.046 0.19,-0.104 0.151,-0.09 0.383,-0.222 0.525,-0.297 0.301,-0.159 0.688,-0.218 0.96,-0.148 0.195,0.05 0.43,0.127 0.464,0.152 0.016,0.012 0.113,0.067 0.214,0.122 0.101,0.056 0.19,0.11 0.2,0.12 0.007,0.01 0.063,0.043 0.122,0.074 0.206,0.11 0.445,0.246 0.635,0.362 0.106,0.065 0.206,0.117 0.222,0.117 a 0.03,0.03 0 0 1 0.03,0.031 c 0,0.017 0.016,0.03 0.035,0.03 0.018,0 0.133,0.063 0.255,0.138 0.121,0.076 0.23,0.138 0.242,0.138 0.011,0 0.108,0.055 0.215,0.123 0.107,0.067 0.203,0.122 0.215,0.122 0.012,0 0.093,0.046 0.18,0.102 0.088,0.056 0.238,0.144 0.333,0.196 0.163,0.09 0.494,0.282 0.888,0.517 0.095,0.057 0.181,0.104 0.191,0.104 0.01,0 0.129,0.069 0.263,0.153 0.135,0.084 0.252,0.153 0.26,0.153 0.01,0 0.068,0.032 0.131,0.072 0.063,0.039 0.197,0.117 0.298,0.173 0.101,0.055 0.19,0.11 0.2,0.12 0.007,0.01 0.063,0.043 0.122,0.074 0.206,0.11 0.445,0.246 0.636,0.362 0.105,0.064 0.197,0.117 0.204,0.117 0.007,0 0.138,0.076 0.29,0.169 0.152,0.092 0.29,0.168 0.305,0.168 0.016,0 0.034,0.01 0.04,0.023 0.005,0.013 0.058,0.05 0.117,0.081 l 0.275,0.15 c 0.093,0.05 0.205,0.116 0.249,0.147 0.044,0.031 0.113,0.072 0.153,0.09 0.04,0.018 0.1,0.049 0.135,0.07 0.225,0.134 0.707,0.415 0.887,0.519 0.118,0.067 0.297,0.172 0.397,0.232 0.1,0.06 0.273,0.159 0.383,0.22 0.32,0.178 0.481,0.27 0.668,0.383 0.096,0.058 0.19,0.106 0.21,0.106 0.034,0 0.048,-0.068 0.133,-0.647 0.042,-0.285 0.042,-1.648 0,-1.818 a 1.283,1.283 0 0 1 -0.03,-0.245 c 0,-0.12 -0.069,-0.536 -0.123,-0.75 a 20.668,20.668 0 0 1 -0.092,-0.398 6.186,6.186 0 0 0 -0.244,-0.811 5.988,5.988 0 0 1 -0.078,-0.215 c -0.122,-0.356 -0.511,-1.145 -0.777,-1.577 a 8.799,8.799 0 0 0 -0.677,-0.954 4.168,4.168 0 0 0 -0.201,-0.24 12.487,12.487 0 0 1 -0.215,-0.242 5.533,5.533 0 0 0 -0.472,-0.477 16.36,16.36 0 0 0 -0.733,-0.613 5.988,5.988 0 0 1 -0.163,-0.122 9.262,9.262 0 0 0 -0.712,-0.463 1.738,1.738 0 0 1 -0.213,-0.118 8.306,8.306 0 0 0 -1.103,-0.523 0.958,0.958 0 0 1 -0.182,-0.08 c -0.016,-0.014 -0.06,-0.025 -0.097,-0.025 -0.038,0 -0.077,-0.013 -0.086,-0.028 -0.009,-0.015 -0.067,-0.036 -0.128,-0.048 a 0.68,0.68 0 0 1 -0.16,-0.049 c -0.072,-0.04 -0.75,-0.212 -0.838,-0.212 -0.04,0 -0.086,-0.013 -0.102,-0.028 -0.016,-0.015 -0.16,-0.044 -0.32,-0.063 l -0.505,-0.065 a 11.499,11.499 0 0 0 -0.858,-0.04 8.53,8.53 0 0 0 -1.806,0.135 c -0.432,0.077 -0.518,0.096 -0.568,0.123 a 0.283,0.283 0 0 1 -0.112,0.03 c -0.069,0 -0.806,0.24 -1.08,0.351 -0.481,0.195 -1.11,0.51 -1.439,0.719 a 5.37,5.37 0 0 1 -0.276,0.162 c -0.076,0.041 -0.269,0.15 -0.429,0.243 -0.16,0.093 -0.339,0.195 -0.398,0.227 a 0.438,0.438 0 0 0 -0.117,0.081 0.046,0.046 0 0 1 -0.04,0.023 c -0.015,0 -0.127,0.06 -0.25,0.134 -0.218,0.133 -0.348,0.207 -0.588,0.336 a 0.892,0.892 0 0 0 -0.138,0.085 c -0.008,0.01 -0.09,0.06 -0.183,0.11 -0.093,0.05 -0.303,0.169 -0.467,0.264 -0.72,0.42 -0.882,0.51 -0.911,0.51 -0.017,0 -0.03,0.01 -0.03,0.024 0,0.013 -0.053,0.05 -0.116,0.083 a 7.549,7.549 0 0 0 -0.306,0.176 2.135,2.135 0 0 1 -0.206,0.115 c -0.008,0 -0.114,0.06 -0.237,0.134 -0.383,0.23 -0.68,0.401 -0.73,0.422 -0.027,0.011 -0.14,0.076 -0.253,0.145 -0.113,0.07 -0.21,0.126 -0.217,0.126 -0.006,0 -0.102,0.055 -0.213,0.122 -0.111,0.068 -0.216,0.123 -0.233,0.123 -0.017,0 -0.031,0.013 -0.031,0.028 0,0.016 -0.031,0.039 -0.07,0.05 a 0.245,0.245 0 0 0 -0.083,0.04 0.701,0.701 0 0 1 -0.123,0.076 c -0.199,0.105 -0.29,0.158 -0.306,0.177 -0.015,0.018 -0.377,0.22 -0.513,0.285 -0.037,0.018 -0.068,0.043 -0.068,0.056 0,0.012 -0.015,0.023 -0.032,0.023 -0.017,0 -0.122,0.055 -0.233,0.122 -0.11,0.068 -0.206,0.123 -0.212,0.123 -0.006,0 -0.113,0.062 -0.238,0.137 a 1.55,1.55 0 0 1 -0.26,0.138 c -0.017,0 -0.035,0.011 -0.041,0.024 -0.012,0.028 -0.511,0.313 -0.548,0.313 a 0.041,0.041 0 0 0 -0.034,0.023 2.351,2.351 0 0 1 -0.3,0.19 c -0.16,0.091 -0.302,0.18 -0.314,0.198 -0.03,0.043 -0.03,4.9 -0.001,4.929 0.012,0.012 0.027,0.008 0.033,-0.01 0.006,-0.018 0.025,-0.033 0.043,-0.033 z"
         style="fill:#4ea8f1;fill-opacity:1;stroke-width:0.0306178" /><g
         id="g34116"
         transform="translate(0,-0.687)"><path
           id="path18571"
           d="m 99.637,-106.268 a 38.819,38.819 0 0 1 -19.409,33.618 38.819,38.819 0 0 1 -38.819,0"
           style="fill:none;fill-opacity:1;stroke:#4ea8f1;stroke-width:0.529167;stroke-miterlimit:2;stroke-dasharray:2.11335, 2.11335;stroke-dashoffset:0.528336;stroke-opacity:1;paint-order:stroke fill markers"
           transform="matrix(0.86864016,-0.49544351,-0.49544351,-0.86864016,0,0)" /><path
           id="path18804"
           d="m -28.413,94.672 a 38.819,38.819 0 0 1 -19.41,33.618 38.819,38.819 0 0 1 -38.818,0"
           style="fill:none;fill-opacity:1;stroke:#4ea8f1;stroke-width:0.529167;stroke-miterlimit:2;stroke-dasharray:2.11335, 2.11335;stroke-dashoffset:0.528336;stroke-opacity:1;paint-order:stroke fill markers"
           transform="matrix(-0.86864016,0.49544351,0.49544351,0.86864016,0,0)" /></g><path
         id="path4577"
         d="m 150.28,36.775 55.038,-0.014 m -53.039,-6.755 h 51.04 a 2,2 0 0 1 2,2 v 45.718 a 2,2 0 0 1 -2,2 h -51.04 a 2,2 0 0 1 -2,-2 V 32.006 a 2,2 0 0 1 2,-2 z"
         style="fill:none;fill-opacity:1;stroke:#4ea8f1;stroke-width:0.799914;stroke-linecap:butt;stroke-linejoin:miter;stroke-dasharray:none;stroke-opacity:1" /><path
         id="rect5311"
         d="m 158.433,41.475 h 38.73 a 2,2 0 0 1 2,2 v 6.198 a 2,2 0 0 1 -2,2 h -38.73 a 2,2 0 0 1 -2,-2 v -6.198 a 2,2 0 0 1 2,-2 z"
         style="fill:#ffffff;fill-opacity:1;stroke:#4ea8f1;stroke-width:1.23746;stroke-linejoin:miter;stroke-miterlimit:2;stroke-dasharray:none;stroke-dashoffset:0;stroke-opacity:1;paint-order:stroke fill markers" /><path
         id="path5317"
         d="m 158.433,59.28 h 13.795 a 2,2 0 0 1 2,2 v 9.817 a 2,2 0 0 1 -2,2 h -13.794 a 2,2 0 0 1 -2,-2 V 61.28 a 2,2 0 0 1 2,-2 z"
         style="fill:#ffffff;fill-opacity:1;stroke:#4ea8f1;stroke-width:1.23746;stroke-linejoin:miter;stroke-miterlimit:2;stroke-dasharray:none;stroke-dashoffset:0;stroke-opacity:1;paint-order:stroke fill markers" /><path
         id="path5323"
         d="M 199.655,60.76 H 176.138"
         style="fill:none;stroke:#4ea8f1;stroke-width:0.793751;stroke-linecap:butt;stroke-linejoin:miter;stroke-dasharray:none;stroke-opacity:1" /><path
         id="path5325"
         d="M 199.655,62.723 H 176.138"
         style="fill:none;stroke:#4ea8f1;stroke-width:0.793751;stroke-linecap:butt;stroke-linejoin:miter;stroke-dasharray:none;stroke-opacity:1" /><path
         id="path5327"
         d="M 199.655,64.688 H 176.138"
         style="fill:none;stroke:#4ea8f1;stroke-width:0.793751;stroke-linecap:butt;stroke-linejoin:miter;stroke-dasharray:none;stroke-opacity:1" /><path
         id="path5329"
         d="M 199.655,66.653 H 176.138"
         style="fill:none;stroke:#4ea8f1;stroke-width:0.793751;stroke-linecap:butt;stroke-linejoin:miter;stroke-dasharray:none;stroke-opacity:1" /><path
         id="path5331"
         d="M 199.655,68.617 H 176.138"
         style="fill:none;stroke:#4ea8f1;stroke-width:0.793751;stroke-linecap:butt;stroke-linejoin:miter;stroke-dasharray:none;stroke-opacity:1" /><path
         id="path5333"
         d="M 199.655,70.582 H 176.138"
         style="fill:none;stroke:#4ea8f1;stroke-width:0.793751;stroke-linecap:butt;stroke-linejoin:miter;stroke-dasharray:none;stroke-opacity:1" /><path
         id="path5335"
         d="M 199.655,72.546 H 176.138"
         style="fill:none;stroke:#4ea8f1;stroke-width:0.793751;stroke-linecap:butt;stroke-linejoin:miter;stroke-dasharray:none;stroke-opacity:1" /><path
         id="path5337"
         d="m 155.942,54.433 h 43.713"
         style="fill:none;stroke:#4ea8f1;stroke-width:0.793751;stroke-linecap:butt;stroke-linejoin:miter;stroke-dasharray:none;stroke-opacity:1" /><path
         id="path5477"
         d="m 155.942,56.397 h 43.713"
         style="fill:none;stroke:#4ea8f1;stroke-width:0.793751;stroke-linecap:butt;stroke-linejoin:miter;stroke-dasharray:none;stroke-opacity:1" /><path
         id="path5701"
         d="m 191.673,30.826 c -12.09,0.008 -24.18,-0.06 -36.27,0.076 -1.29,0.024 -2.616,0.007 -3.867,0.336 -0.68,0.96 -0.375,2.236 -0.466,3.34 0.005,0.621 -0.216,1.47 0.7,1.181 h 52.836 c -0.06,-1.394 0.242,-2.914 -0.396,-4.205 -0.363,-0.692 -1.15,-0.836 -1.86,-0.737 z"
         style="fill:#4ea8f1;fill-opacity:1;stroke:none;stroke-width:1.23746;stroke-miterlimit:2;stroke-dasharray:none;stroke-dashoffset:9.92504;stroke-opacity:1;paint-order:fill markers stroke" /><path
         id="path5986"
         d="m 162.618,59.967 c -1.152,0.004 -2.349,0.003 -3.474,0.046 -0.535,0.04 -1.094,0.025 -1.6,0.224 -0.208,0.125 -0.282,0.384 -0.382,0.591 -0.127,0.583 -0.116,1.188 -0.14,1.764 a 233.953,233.953 0 0 0 -0.008,6.852 c 0.034,0.745 0.008,1.507 0.208,2.231 0.103,0.336 0.423,0.607 0.78,0.61 1.236,0.115 2.48,0.087 3.721,0.106 3.668,0.015 7.336,0.005 11.004,0.008 l 0.818,-0.73 V 60.697 l -0.818,-0.73 z"
         style="fill:url(#pattern32279);fill-opacity:1;stroke:none;stroke-width:1.23746;stroke-miterlimit:2;stroke-dasharray:none;stroke-dashoffset:9.92504;stroke-opacity:1;paint-order:fill markers stroke" /><circle
         id="path6249"
         cx="198.33"
         cy="33.303001"
         r="1.176"
         style="fill:#ffffff;fill-opacity:1;stroke:none;stroke-width:0.481039;stroke-linejoin:miter;stroke-miterlimit:2;stroke-dasharray:none;stroke-dashoffset:0;stroke-opacity:1;paint-order:stroke fill markers" /><circle
         id="circle6251"
         cx="202.034"
         cy="33.303001"
         r="1.176"
         style="fill:#ffffff;fill-opacity:1;stroke:none;stroke-width:0.481039;stroke-linejoin:miter;stroke-miterlimit:2;stroke-dasharray:none;stroke-dashoffset:0;stroke-opacity:1;paint-order:stroke fill markers" /><text
         xml:space="preserve"
         id="text32343"
         x="161.202"
         y="49.318001"
         style="font-weight:700;font-size:7.837px;line-height:1.25;font-family:'Segoe UI';-inkscape-font-specification:'Segoe UI, Bold';fill:#4ea8f1;fill-opacity:1;stroke-width:0.326542"><tspan
           id="tspan32341"
           x="161.202"
           y="49.318001"
           style="fill:#4ea8f1;fill-opacity:1;stroke-width:0.326542">&lt;HTML&gt;</tspan></text><path
         id="path32826"
         d="m 70.98,31.347 -0.87,3.242 -2.373,-2.373 z"
         style="opacity:1;fill:#4ea8f1;fill-opacity:1;stroke:none;stroke-width:0.529167;stroke-miterlimit:2;stroke-dasharray:2.11335, 2.11335;stroke-dashoffset:0.528337;stroke-opacity:1;paint-order:stroke fill markers"
         transform="rotate(164.092,69.485,38.561)" /><path
         id="path32828"
         d="m 70.98,31.347 -0.87,3.242 -2.373,-2.373 z"
         style="opacity:1;fill:#4ea8f1;fill-opacity:1;stroke:none;stroke-width:0.529167;stroke-miterlimit:2;stroke-dasharray:2.11335, 2.11335;stroke-dashoffset:0.528337;stroke-opacity:1;paint-order:stroke fill markers"
         transform="rotate(-137.44,111.301,36.246)" /><g
         id="g34112"><path
           id="rect19747"
           d="m 76.387,48.092 h 58.729 V 61.637 H 76.387 Z"
           style="opacity:1;fill:#ffffff;fill-opacity:1;stroke:#4ea8f1;stroke-width:0.529167;stroke-miterlimit:2;stroke-dasharray:none;stroke-dashoffset:0.528337;stroke-opacity:1;paint-order:stroke fill markers" /><text
           xml:space="preserve"
           id="text19438"
           x="84.010002"
           y="58.737999"
           style="font-weight:700;font-size:10.6407px;line-height:1.25;font-family:'Segoe UI';-inkscape-font-specification:'Segoe UI, Bold';fill:#4ea8f1;fill-opacity:1;stroke:none;stroke-width:0.443363"><tspan
             id="tspan19436"
             x="84.010002"
             y="58.737999"
             style="fill:#4ea8f1;fill-opacity:1;stroke:none;stroke-width:0.443363">ChatGPT</tspan></text><g
           id="g33324"
           transform="translate(0,0.712)"><path
             id="path33318"
             d="M 76.387,52.3 H 63.92"
             style="fill:none;stroke:#4ea8f1;stroke-width:0.264584px;stroke-linecap:butt;stroke-linejoin:miter;stroke-dasharray:1.05834, 1.05834;stroke-dashoffset:0;stroke-opacity:1" /><path
             id="path33320"
             d="M 76.387,56.005 H 63.861"
             style="fill:none;stroke:#4ea8f1;stroke-width:0.264584px;stroke-linecap:butt;stroke-linejoin:miter;stroke-dasharray:1.05834, 1.05834;stroke-dashoffset:0;stroke-opacity:1" /></g><g
           id="g33330"
           transform="translate(70.187,0.712)"><path
             id="path33326"
             d="M 77.026,52.3 H 64.929"
             style="fill:none;stroke:#4ea8f1;stroke-width:0.264584px;stroke-linecap:butt;stroke-linejoin:miter;stroke-dasharray:1.05834, 1.05834;stroke-dashoffset:0;stroke-opacity:1" /><path
             id="path33328"
             d="M 76.864,56.005 H 64.93"
             style="fill:none;stroke:#4ea8f1;stroke-width:0.264584px;stroke-linecap:butt;stroke-linejoin:miter;stroke-dasharray:1.05834, 1.05834;stroke-dashoffset:0;stroke-opacity:1" /></g><path
           id="rect33384"
           d="m 134.057,53.145 h 2.036 v 3.44 h -2.036 z"
           style="opacity:1;fill:#ffffff;fill-opacity:1;stroke:none;stroke-width:0.509918;stroke-miterlimit:2;stroke-dasharray:none;stroke-dashoffset:0;stroke-opacity:1;paint-order:stroke fill markers" /><path
           id="rect33386"
           d="m 75.369,53.145 h 2.036 v 3.44 h -2.036 z"
           style="opacity:1;fill:#ffffff;fill-opacity:1;stroke:none;stroke-width:0.509918;stroke-miterlimit:2;stroke-dasharray:none;stroke-dashoffset:0;stroke-opacity:1;paint-order:stroke fill markers" /></g></g></g></svg>
